<svg width="92" height="60" fill="none" xmlns="http://www.w3.org/2000/svg"><g clip-path="url(#clip0)" fill="#fff"><path d="M19.274 25.249v5.84c-1.303-2.493-3.28-3.75-5.93-3.75s-3.976 1.46-3.976 4.38c0 1.46.36 2.515 1.078 3.167.719.651 1.864.966 3.46.966 1.505 0 2.762-.36 3.773-1.078 1.011-.72 1.483-1.595 1.438-2.629 0-.045 0-.09-.023-.18.427.36.652.877.652 1.528 0 1.505-.63 2.718-1.887 3.662-1.258.943-2.898 1.392-4.965 1.392-2.358 0-4.38-.651-6.087-1.931-1.707-1.28-2.56-2.808-2.56-4.583 0-1.797.853-3.414 2.56-4.852 1.707-1.438 3.662-2.134 5.84-2.134 1.887 0 3.55.517 4.987 1.572l1.64-1.37zm9.972-.202c2.134 0 3.999.696 5.594 2.089 1.572 1.393 2.358 3.055 2.358 4.942 0 1.752-.786 3.28-2.381 4.56-1.595 1.28-3.482 1.91-5.66 1.91-2.157 0-4.044-.652-5.662-1.932-1.617-1.303-2.448-2.786-2.448-4.493 0-1.932.809-3.594 2.426-4.987 1.617-1.393 3.55-2.09 5.773-2.09zm-.112 2.156c-.876 0-1.595.427-2.157 1.258-.561.854-.83 1.932-.83 3.258 0 1.325.269 2.38.808 3.19.539.808 1.28 1.19 2.179 1.19.898 0 1.64-.404 2.179-1.19.539-.787.808-1.865.808-3.19 0-1.326-.27-2.404-.83-3.258-.562-.83-1.281-1.258-2.157-1.258zm20.849-1.729l-2.022 2.268 3.55 7.279 3.212 2.92H44.03l2.943-2.561-.382-.854h-4.874l-.382.854 2.56 2.56h-7.907l2.494-2.92 3.482-7.278-1.977-2.268h9.996zM44.03 29.09l-1.505 3.37h3.1l-1.595-3.37z"/><path d="M54.676 25.474h11.142c1.28 0 2.269.134 2.987.404.72.27 1.438.741 2.134 1.46 1.348 1.37 2.022 2.898 2.022 4.583 0 1.774-.696 3.234-2.067 4.358-1.37 1.123-3.167 1.684-5.368 1.684h-10.85l3.1-2.875v-6.672l-3.1-2.942zm7.48 9.996h2.09c1.46 0 2.448-.225 2.92-.697.471-.471.718-1.415.718-2.852 0-2.83-1.19-4.246-3.594-4.246h-2.134v7.795zm11.93-9.996H86.44c1.348 0 2.426.292 3.28.898.83.607 1.257 1.393 1.257 2.359 0 1.415-1.235 2.336-3.728 2.763 2.897.539 4.358 1.685 4.358 3.414 0 2.022-1.73 3.033-5.167 3.033H74.108l3.1-2.853v-6.694l-3.122-2.92zm7.48 4.897h3.55c.965 0 1.437-.427 1.437-1.28 0-.944-.494-1.416-1.46-1.416H81.59v2.696h-.023zm0 5.346h3.505c1.168 0 1.752-.45 1.752-1.37 0-1.011-.427-1.505-1.303-1.505h-3.931v2.875h-.023zM39.063 51.554c4.784 5.211 8.244 6.581 14.803 8.423-1.258-5.84-2.336-11.321-7.413-14.96-.135.18-.719.876-.854 1.033-1.82 2.134-3.998 4.044-6.536 5.504zm-26.011-6.2c-.045-.023-.09-.023-.135-.045-4.74 3.886-6.425 9.075-8.042 14.669C11.569 58 16.489 55.686 20.51 51.733c-2.876-1.752-5.302-3.908-7.458-6.38zM16.78 9.48c1.55-.832 2.83-1.505 4.38-2.337a692.57 692.57 0 00-3.773-3.998l-4.673 3.819C10.513 5.167 8.29 3.347 8.177 0 5.66 1.617 3.145 3.257 0 5.279c4.65.54 5.998 3.032 7.772 5.818-2.021.876-3.796 1.662-5.683 2.471 1.236 1.303 2.56 2.673 3.931 4.11 1.415-.988 3.684-2.942 3.684-2.942s1.46 1.078 2.224 1.617c3.122-.763 5.571-1.887 7.93-2.942-1.101-1.415-2.044-2.606-3.078-3.931zm25.182 0c-1.55-.832-2.83-1.505-4.38-2.337 1.303-1.392 2.516-2.65 3.796-3.998l4.673 3.819C48.252 5.167 50.476 3.347 50.588 0c2.516 1.617 5.032 3.257 8.155 5.279-4.628.54-5.976 3.032-7.75 5.818 2.021.876 3.796 1.662 5.683 2.471-1.236 1.303-2.56 2.673-3.931 4.11-1.415-.988-3.684-2.942-3.684-2.942s-1.46 1.078-2.224 1.617c-3.122-.763-5.571-1.887-7.93-2.942 1.101-1.415 2.022-2.606 3.055-3.931zm6.312 9.614c-7.503-1.28-13.59-4.268-19.094-8.267-5.077 4.448-11.3 6.717-18.263 8.245-.45.09-.494 1.797-.315 3.976h37.65a57.72 57.72 0 00.022-3.954zM29.29 52.88c6.762-3.011 10.312-4.74 13.524-8.492a19.227 19.227 0 002.56-3.954H13.567c3.1 5.796 9.076 9.188 15.725 12.445zm27.251-9.009c.337 0 .652.113.899.337.27.225.404.472.404.764 0 .292-.135.54-.404.764a1.36 1.36 0 01-.899.337c-.337 0-.651-.113-.898-.337-.248-.225-.405-.472-.405-.764 0-.292.135-.54.405-.764.247-.224.561-.337.898-.337zm9.546-.674c.292.315.426.652.426.989 0 .629-.314 1.123-.92 1.505-.607.382-1.416.561-2.427.561-1.078 0-2.021-.292-2.807-.853-.787-.562-1.191-1.236-1.191-2 0-.876.404-1.617 1.236-2.223.83-.607 1.819-.921 2.965-.921.808 0 1.527.157 2.134.494.606.337.898.719.898 1.168 0 .629-.382.92-1.145.92a3.51 3.51 0 01-.742-.111c.045-.203.068-.36.068-.495 0-.27-.113-.471-.36-.651-.247-.18-.539-.247-.876-.247-1.01 0-1.527.651-1.527 1.932 0 1.19.629 1.774 1.887 1.774 1.617 0 2.38-.606 2.38-1.842zm5.593-2.942c1.056 0 2 .314 2.808.943.809.63 1.213 1.348 1.213 2.18 0 .785-.404 1.46-1.213 2.02-.809.562-1.775.832-2.898.832-1.145 0-2.111-.292-2.92-.876-.809-.584-1.213-1.303-1.213-2.112 0-.83.404-1.527 1.236-2.111.83-.584 1.82-.876 2.987-.876zm-.135 1.123c-.943 0-1.415.629-1.415 1.91 0 1.212.472 1.819 1.438 1.819.943 0 1.393-.607 1.393-1.797.022-1.28-.45-1.932-1.416-1.932zm8.829-.944v1.483c.584-1.078 1.37-1.617 2.403-1.617 1.168 0 1.932.561 2.269 1.662.45-1.123 1.235-1.685 2.359-1.685.786 0 1.392.202 1.797.607.427.404.629.988.629 1.752v1.887l1.887 1.415h-5.392l1.034-1.168v-2c0-.673-.315-1.01-.944-1.01-.36 0-.674.157-.92.449-.248.292-.36.674-.36 1.123v1.438l1.033 1.168h-4.56l1.033-1.168v-1.842c0-.764-.292-1.168-.876-1.168-.404 0-.719.135-.966.427-.247.291-.36.65-.36 1.123v1.437l1.034 1.168h-5.189L77.97 44.5v-2.56l-1.685-1.416 4.089-.09z"/></g><defs><clipPath id="clip0"><path fill="#fff" d="M0 0h91.741v60H0z"/></clipPath></defs></svg>