<svg width="269" height="160" fill="none" xmlns="http://www.w3.org/2000/svg"><path d="M175.491 101.91l.024-1.033-39.574 39.621c.342 0 .691-.008 1.033-.024l38.517-38.564zm-.144-4.937l-.095-.922-44.133 44.176.922.096 43.306-43.35zm-68.097 31.582c.087.088.167.175.254.255.088.087.175.166.254.254L164.1 72.666c-.087-.087-.167-.175-.254-.254-.088-.088-.175-.167-.254-.255l-56.342 56.398zm67.655-20.967c.071-.406.135-.812.198-1.217l-33.679 33.713c.405-.056.81-.127 1.215-.199l32.266-32.297zm-.208-15.036a31.163 31.163 0 00-.183-.835l-47.731 47.779c.278.063.556.127.834.183l47.08-47.127zm-6.021 30.413L158 133.66a40.29 40.29 0 005.846-4.835 40.68 40.68 0 004.83-5.86zm4.971-34.445c-.079-.254-.167-.508-.254-.763l-50.567 50.618c.254.087.509.167.763.254l50.058-50.108zm-63.768 42.492c.183.159.365.31.556.461l56.071-56.128-.46-.556-56.167 56.223zm58.788-52.756l-.413-.605-55.524 55.579c.199.143.398.279.604.414l55.333-55.388zm1.932 3.148c-.119-.214-.238-.437-.365-.652L115.83 135.21c.215.127.429.247.651.366l54.118-54.172zm1.667 3.411a69.036 69.036 0 00-.309-.7l-52.768 52.821c.231.103.469.214.699.31l52.378-52.43zm.739 29.746c.19-.517.373-1.042.548-1.559l-25.506 25.532c.524-.167 1.04-.35 1.557-.549l23.401-23.424zm-20.85-50.268c-.23-.103-.469-.214-.699-.31l-52.378 52.43c.103.239.207.47.31.7l52.767-52.82zm3.358 1.726a17.063 17.063 0 00-.651-.366l-54.118 54.172c.119.214.238.437.366.652l54.403-54.458zm3.097 1.979a16.022 16.022 0 00-.603-.413l-55.333 55.388.413.604 55.523-55.579zm2.861 2.219a14.61 14.61 0 00-.556-.461l-56.071 56.127.46.557 56.167-56.223zm-31.551-9.073c-.405.056-.811.127-1.216.199L96.439 93.64c-.072.406-.135.811-.199 1.217l33.68-33.713zm-16.57 6.433a40.22 40.22 0 00-5.847 4.835 40.259 40.259 0 00-4.829 5.852l10.676-10.687zm35.174-4.723c-.254-.087-.508-.167-.762-.254l-50.059 50.108c.08.255.167.509.254.764l50.567-50.618zm-13.115-2.123c-.341 0-.691.008-1.032.024L95.852 99.318l-.024 1.034 39.581-39.62zM98.34 86.668a61.04 61.04 0 00-.549 1.558l25.506-25.53c-.524.166-1.041.349-1.557.548l-23.4 23.424zm46.226-24.935c-.278-.063-.556-.127-.834-.183l-47.08 47.127c.056.278.12.557.183.835l47.731-47.779zm-4.334-.74l-.921-.095-43.315 43.358.095.922 44.141-44.185z" fill="#fff"/><path d="M224.382 31.256a10.28 10.28 0 00-.898 1.153c-.198.318-.317.588-.349.811-.032.223 0 .406.111.549.103.143.262.262.485.365.365.167.778.167 1.247 0 .468-.166.945-.469 1.43-.898.492-.43.969-.978 1.437-1.638.469-.66.89-1.407 1.263-2.234.437-.97.699-1.885.779-2.751.079-.867-.008-1.662-.27-2.402a5.234 5.234 0 00-1.287-1.987c-.596-.589-1.358-1.09-2.264-1.503-1.231-.557-2.478-.811-3.749-.756a8.985 8.985 0 00-3.654.962c-1.168.589-2.248 1.408-3.233 2.465-.993 1.058-1.811 2.314-2.47 3.761-.564 1.24-.898 2.41-.993 3.507-.104 1.097.008 2.099.325 3.013a6.474 6.474 0 001.533 2.45c.707.715 1.589 1.32 2.653 1.796.684.31 1.327.557 1.931.74.603.183 1.151.318 1.652.405.5.088.937.143 1.326.151.39.008.699 0 .946-.04.325-.015.579.016.778.08.199.064.35.159.453.27.103.12.175.255.198.406.024.15.032.31.024.461l-.206 1.28a14.58 14.58 0 01-1.923.167 13.536 13.536 0 01-2.089-.12 15.212 15.212 0 01-2.24-.46 17.07 17.07 0 01-2.351-.875c-1.485-.676-2.716-1.519-3.686-2.544a9.463 9.463 0 01-2.128-3.42c-.445-1.264-.612-2.615-.501-4.062.104-1.448.509-2.934 1.2-4.453a14.771 14.771 0 011.962-3.196 15.344 15.344 0 012.589-2.545 14.642 14.642 0 013.05-1.813 13.39 13.39 0 013.329-.978 12.39 12.39 0 013.431-.055 11.12 11.12 0 013.368.954 9.669 9.669 0 012.995 2.099 8.765 8.765 0 011.882 2.958 8.815 8.815 0 01.564 3.53c-.039 1.256-.357 2.536-.953 3.84a11.53 11.53 0 01-2.01 3.086c-.81.882-1.676 1.566-2.621 2.067-.937.5-1.906.787-2.907.875a5.643 5.643 0 01-2.884-.501 3.577 3.577 0 01-.73-.446 2.284 2.284 0 01-.556-.62 2.253 2.253 0 01-.31-.787 2.535 2.535 0 01-.008-.954c-.874.35-1.668.517-2.383.509a5.203 5.203 0 01-2.049-.461c-.501-.223-.89-.51-1.184-.86a2.792 2.792 0 01-.588-1.152 3.479 3.479 0 01-.047-1.352c.071-.477.214-.97.444-1.463a8.483 8.483 0 012.487-3.125 8.744 8.744 0 011.835-1.097 7.668 7.668 0 012.144-.612 8.68 8.68 0 012.399.016c.834.119 1.692.381 2.574.779.397.183.738.35 1.04.525.294.167.564.342.81.517a6.5 6.5 0 01.652.54c.19.183.389.39.58.613l-4.385 4.46zm-.302-4.27a3.982 3.982 0 00-.572-.31c-.453-.206-.953-.278-1.517-.222a4.6 4.6 0 00-1.652.5 6.064 6.064 0 00-1.525 1.122 5.356 5.356 0 00-1.128 1.622c-.389.866-.294 1.43.286 1.693.175.08.373.128.588.151.214.016.444-.016.691-.095.246-.08.508-.223.786-.413.278-.2.572-.47.89-.811l3.153-3.237z" fill="#CBDAFF"/><path d="M14.05 154.094h221.618v-4.103H14.083l-.032 4.103z" fill="#C9D1FF"/><path d="M27.699 23.122a.675.675 0 00-.103.111c-1.359 1.137-3.471 4.27-3.344 7.459.23 5.581 5.568 11.203 6.656 12.292 1.064 1.121 6.53 6.608 12.098 6.981 3.248.223 6.505-1.908 7.617-3.236.604-.715-.635-2.759-2.764-4.556-2.057-1.733-4.186-2.608-4.877-2.02l-.008-.007s-1.049.978-1.748 3.172c0 0-2.812-.652-6.251-4.19-3.249-3.34-4.115-6.465-4.115-6.465 2.217-.644 3.217-1.67 3.217-1.67l-.015-.015c.008-.008.015-.008.023-.016.731-.596-.11-2.83-1.874-4.993-1.772-2.171-3.79-3.443-4.512-2.847z" fill="#CBDAFF"/><path d="M107.553 17.43c1.541 1.63 2.557 3.808 3.145 7.29l-4.766-4.063s-.532-5.7-7.149-6.36c0-.009 5.282-.009 8.77 3.132z" fill="#2D41E3"/><path d="M235.273 110.418s11.113-35.621 33.728-41.298c0 0-23.806 16.61-28.366 43.7l-5.362-2.402z" fill="#7CC6B2"/><path d="M238.146 111.706l2.487 1.114c4.559-27.098 28.365-43.7 28.365-43.7-22.662 13.294-29.215 35.088-30.852 42.586z" fill="#55B59B"/><path d="M231.309 112.16s5.353-21.635 15.275-35.836c9.921-14.201 7.141-17.7 7.141-17.7s4.36 1.312-5.156 19.664c-9.524 18.351-12.296 37.148-12.296 37.148l-4.964-3.276z" fill="#7CC6B2"/><path d="M253.725 58.624s.039.056.095.175c3.146 5.256-7.475 19.751-12.455 31.423-3.241 7.594-5.6 17.763-6.871 24.045l1.771 1.169s2.781-18.79 12.297-37.148c9.524-18.352 5.163-19.664 5.163-19.664z" fill="#55B59B"/><path d="M229.322 114.569l5.306-.541s-1.056-29.865 4.758-53.758c0-.008-9.555 21.985-10.064 54.299z" fill="#7CC6B2"/><path d="M231.864 114.307c-.516-8.453-.612-28.688 7.522-54.045 0 0-9.555 21.993-10.064 54.307l2.542-.262z" fill="#55B59B"/><path d="M225.548 112.597l5.354.875s-3.463-18.972 3.376-32.338c7.935-15.513 8.729-26.66 7.538-29.062 0 0 .794 10.71-10.12 27.098-9.055 13.605-6.148 33.427-6.148 33.427z" fill="#7CC6B2"/><path d="M241.818 53.17c.738 15.584-9.064 23.535-12.106 34.937-2.82 10.56-3.439 19.791-2.518 24.768l2.915.477.612-1.041c-.62-4.326-2.272-19.775 3.558-31.169 7.936-15.513 8.73-26.66 7.539-29.062 0-.008-.032.366 0 1.09z" fill="#55B59B"/><path d="M223.373 115.881s-.198-16.825-6.545-30.374c0 0 7.737 10.05 10.914 30.374h-4.369z" fill="#7CC6B2"/><path d="M225.367 115.929c.008-4.771-1.024-15.513-8.547-30.374 6.347 13.549 6.546 30.374 6.546 30.374h2.001z" fill="#55B59B"/><path d="M240.627 137.508h-16.459l-5.957-29.714h28.373l-5.957 29.714z" fill="#BF7D4F"/><path d="M227.623 137.508l-3.375-16.634a4.057 4.057 0 013.503-4.842l14.282-1.686h-22.504l4.639 23.17h3.455v-.008z" fill="#A14E28"/><path d="M18.294 138.987S3.202 81.738 14.322 72.992c11.12-8.746 45.277-7.156 52.426-1.59 7.149 5.566 9.532 67.585 9.532 67.585H18.294z" fill="#33419F"/><path d="M23.457 71.004s9.389-1.582 11.597 22.923C37.262 118.425 37.747 137 37.747 137m-1.581-66.52s9.389-1.583 11.597 22.923c2.208 24.497 2.693 43.071 2.693 43.071m-1.583-66.527s9.389-1.583 11.597 22.923c2.208 24.498 2.693 43.072 2.693 43.072" stroke="#3851AC" stroke-miterlimit="10"/><path d="M38.15 140.577s13.027-58.79 13.822-60.317c.794-1.527 23.115-10.71 23.115-10.71l14.432 3.442 12.543 7.864 2.677 5.295 7.339 29.181s3.376-.214 3.376 4.151l23.211 3.498.397 18.018-100.912-.422z" fill="#D1377A"/><path d="M47.603 141.444l6.546-29.722s8.928 23.385 11.51 26.661c2.581 3.275-18.056 3.061-18.056 3.061zm25.594-43.485l9.127 23.162-3.376 4.587s5.751-5.025 6.347-4.81c.596.215 1.787 5.9 1.787 5.9l.596-3.713 27.372 1.089-27.372-4.373-3.964-1.527-10.517-20.315z" fill="#BD2965"/><path d="M95.018 99.27s3.177 13.112 3.376 14.639c.198 1.527-1.986 7.212-1.986 7.212l2.978.437.795-7.864-5.163-14.423z" fill="#BD2965"/><path d="M114.66 126.75v10.814h39.724v-6.393l-12.606-7.602a4.86 4.86 0 00-3.288-.636l-23.83 3.817z" fill="#F1D4C3"/><path d="M156.043 122.933l-12.113 1.94 10.453 6.298v6.393h17.555v-6.393l-12.606-7.602a4.909 4.909 0 00-3.289-.636z" fill="#F1D4C3"/><path d="M138.467 125.112l8.475 5.9m-13.383-5.081l6.545 5.081m17.109-5.248l7.737 5.248m-12.05-4.922l6.689 4.922" stroke="#EABEA6" stroke-miterlimit="10" stroke-linecap="round"/><path d="M202.139 130.956h-66.652l-16.069 2.29v4.484h82.721v-6.774z" fill="#6F9CFF"/><path d="M135.487 130.956l-16.069 2.29v4.484h16.069v-6.774z" fill="#3D7AEF"/><path d="M221.387 120.683l-70.981.819 19.35-72.912 69.734 3.896-18.103 68.197z" fill="#6F9CFF"/><path opacity=".31" d="M175.141 121.216l25.958-.294 6.236-21.73-25.522-2.322-6.672 24.346z" fill="#6F9CFF"/><path d="M235.176 49.011l-69.543-4.397 4.122 3.976 69.734 3.896-4.313-3.475z" fill="#C9D1FF"/><path d="M145.609 118.282l4.798 3.22 19.35-72.912-4.123-3.976-20.025 73.668z" fill="#3D7AEF"/><path d="M206.009 92.13l-20.978-.397c1.78 0 3.225 2.298 3.225 5.136 0 2.839-1.445 5.137-3.225 5.137l20.978-.398c1.645 0 2.979-2.123 2.979-4.739 0-2.623-1.334-4.739-2.979-4.739z" fill="#C9D1FF"/><path d="M188.257 96.87c0 2.838-1.446 5.136-3.225 5.136-1.78 0-3.225-2.298-3.225-5.137 0-2.838 1.445-5.136 3.225-5.136 1.779 0 3.225 2.298 3.225 5.136z" fill="#778BFF"/><path d="M203.839 128.722l-15.585-31.86c0 2.838-1.446 5.136-3.225 5.136-.683 0-1.319-.342-1.835-.914l13.511 27.9c.572 1.185-.206 2.624-1.429 2.624h-16.745v6.011h20.486c4.146 0 6.791-4.874 4.822-8.897z" fill="#3D7AEF"/><path d="M224.477 128.722l-15.585-31.86h-20.628l15.584 31.86c1.939 3.968-.611 8.762-4.67 8.882v.007h20.485c4.131.008 6.776-4.866 4.814-8.889z" fill="#6F9CFF"/><path d="M199.637 69.032c-.302 1.225-1.2 2.02-1.994 1.773-.794-.238-1.191-1.43-.89-2.647.302-1.225 1.2-2.02 1.994-1.773.794.238 1.192 1.423.89 2.647z" fill="#fff"/><path d="M92.523 63.403l-2.915 14.002s-3.615 2.322-6.88 1.376c-3.264-.947-4.17-4-4.17-5.51 0-1.511 3.75-16.531 3.75-16.531l10.215 6.663z" fill="#EABEA6"/><path d="M78.384 38.15c-2.232 4.524-2.065 15.52 3.606 22.335 5.672 6.814 9.62 9.27 13.234 9.088 3.606-.19 11.343-6.059 13.75-12.491 2.406-6.433 3.264-14.957 4.297-17.978 1.033-3.03-5.155-10.034-7.387-10.98-2.232-.947-19.08-7.006-27.5 10.026z" fill="#F1D4C3"/><path d="M100.506 31.646c-4.003-5.94-8.285 1.519-13.32 4.97-8.127 5.565-7.134 8.547-5.363 30.492.5 6.25-4.765 20.92-5.647 21.389-7.793 4.166-11.208-14.2-24.203-8.237-2.868-4.087 11.295-21.548 11.93-27.543 2.344-22.065 8.587-38.182 32.846-35.582 7.53.811 13.527 5.757 16.577 11.434 5.076 9.438-3.503 26.422-3.503 26.422s1.184-8.087 2.042-10.544c.858-2.457 1.938-11.147.937-7.037-.349 1.48-8.15.398-12.296-5.764z" fill="#2A2E6F"/><path d="M162.495 2.194h-25.14c-2.836 0-5.131 2.529-5.131 5.654v11.426l-8.007 5.86 8.007 4.906v2.059c0 3.125 2.295 5.653 5.131 5.653h25.14c2.836 0 5.132-2.528 5.132-5.653V7.848c0-3.117-2.296-5.654-5.132-5.654z" fill="#CBDAFF"/><path d="M16.976 55.762c0 1.828-1.565 3.315-3.487 3.315-1.922 0-3.487-1.486-3.487-3.315 0-1.83 1.565-3.316 3.487-3.316 1.922 0 3.487 1.487 3.487 3.316zM192.029 28.21c0 .629-.532 1.13-1.191 1.13s-1.192-.509-1.192-1.13c0-.627.533-1.128 1.192-1.128.659 0 1.191.5 1.191 1.129z" fill="#B696DF"/><path d="M113.081 3.021c0 1.67-1.422 3.022-3.177 3.022-1.756 0-3.177-1.352-3.177-3.022 0-1.67 1.421-3.021 3.177-3.021 1.755.008 3.177 1.36 3.177 3.021z" fill="#F3F4FF"/><path d="M123.39 92.377c1.755 0 3.178-1.353 3.178-3.021 0-1.669-1.423-3.022-3.178-3.022s-3.177 1.353-3.177 3.022c0 1.668 1.422 3.021 3.177 3.021z" fill="#B696DF"/><path d="M97.44 44.519c-.286 1.177-1 1.988-1.612 1.805-.604-.175-.866-1.273-.588-2.45.286-1.176 1-1.987 1.612-1.804.604.183.866 1.28.588 2.449z" fill="#53353D"/><path d="M92.977 52.748c-1.493-.445-2.486-1.43-2.216-2.202.27-.771 1.7-1.034 3.193-.588 1.494.445 2.487 1.43 2.217 2.202-.279.78-1.708 1.042-3.194.588zm13.407 2.29c-1.382-.215-2.375-.962-2.232-1.678.143-.715 1.382-1.12 2.757-.914 1.382.215 2.375.962 2.232 1.678-.143.723-1.374 1.129-2.757.914z" fill="#EFCDBB"/><path d="M108.346 47.556c-.286 1.177-1 1.988-1.612 1.805-.604-.175-.866-1.272-.588-2.449.278-1.177 1.001-1.988 1.613-1.805.611.175.873 1.272.587 2.45z" fill="#53353D"/><path d="M90.894 55.865s3.742 4.54 12.885 3.832c0 0-3.194 4.326-7.19 3.332-2.803-.692-4.789-6.305-5.695-7.164z" fill="#FDFFFF"/><path d="M101.722 45.711s.421.62.794 1.63c.199.501.373 1.106.508 1.773.135.668.223 1.392.175 2.187-.048.406-.071.803-.342 1.312l-.103.183-.016.024-.055.071-.024.024-.04.048c-.071.072-.095.103-.206.199a4.05 4.05 0 01-.294.238l-.262.151c-.699.374-1.359.477-1.915.525-1.112.096-1.835-.127-1.835-.127s.636-.302 1.597-.755c.445-.231.977-.494 1.382-.827l.143-.12c.024-.032.056-.063.08-.087.023-.008.095-.12.135-.175l.039-.048.016-.024.008-.008c-.079.104-.024.024-.04.048v-.008l.008-.047c.048-.104.104-.422.12-.7.039-.605.023-1.28.015-1.909a35.141 35.141 0 01-.008-1.765c.024-1.073.12-1.813.12-1.813z" fill="#E3A78F"/><path d="M85.81 43.19c0 5.606-2.915 10.154-6.506 10.154-3.598 0-7.927-4.548-7.927-10.153 0-5.606 4.329-10.154 7.927-10.154 3.599.008 6.506 4.548 6.506 10.154z" fill="#2D41E3"/><path d="M81.736 52.223l6.673 7.991a3.476 3.476 0 002.232 1.225l2.406.294" stroke="#2D41E3" stroke-width="2" stroke-miterlimit="10" stroke-linecap="round"/><path d="M92.85 62.91c.651.08 1.247-.39 1.327-1.042a1.196 1.196 0 00-1.04-1.328 1.195 1.195 0 00-1.327 1.042 1.196 1.196 0 001.04 1.328z" fill="#2D41E3"/><path d="M84.222 43.19c0 5.606-2.915 10.154-6.506 10.154-3.598 0-7.927-4.548-7.927-10.153 0-5.606 4.33-10.154 7.927-10.154 3.599.008 6.506 4.548 6.506 10.154z" fill="#6D84FF"/><path d="M75.334 37.585s1.414-25.126 21.01-24.275c7.602.334 11.216 4.119 11.216 4.119s-3.106-3.14-9.302-3.14c-6.76 0-15.338 4.89-18.54 24.433l-4.384-1.137z" fill="#6D84FF"/><path d="M159.556 27.424l-18.54.071a2.484 2.484 0 01-2.494-2.473l-.032-10.766a2.49 2.49 0 012.471-2.496l18.539-.072a2.484 2.484 0 012.494 2.473l.032 10.766a2.48 2.48 0 01-2.47 2.497z" fill="#DE9200"/><path d="M161.995 15.17l-.008-1.446c0-1.13-.842-2.044-1.867-2.044l-19.787.08c-1.024.008-1.858.922-1.851 2.06l.008 1.446 11.78 8.62 11.725-8.715z" fill="#ECBC61"/><path d="M258.283 137.731H0v12.236h258.283v-12.236z" fill="#C9D1FF"/><path d="M258.283 137.731H0v1.526h258.283v-1.526z" fill="#F3F4FF"/><path d="M25.522 137.731H0v12.236h25.522v-12.236z" fill="#97A6FF"/><path d="M25.522 137.731H0v1.526h25.522v-1.526z" fill="#778BFF"/><path d="M14.084 149.96v10.395h221.983v-10.364l-221.983-.031z" fill="#97A6FF"/><path d="M36.103 149.96H14.084v13.66s7.72 10.249 22.019 18.924V149.96z" fill="#778BFF"/></svg>