<svg width="269" height="160" viewBox="0 0 269 160" fill="none" xmlns="http://www.w3.org/2000/svg">
<path d="M175.491 101.91C175.499 101.568 175.507 101.219 175.515 100.877L135.941 140.498C136.283 140.498 136.632 140.49 136.974 140.474L175.491 101.91Z" fill="white"/>
<path d="M175.347 96.9729C175.315 96.6628 175.284 96.3606 175.252 96.0505L131.119 140.227C131.429 140.259 131.731 140.291 132.041 140.323L175.347 96.9729Z" fill="white"/>
<path d="M107.25 128.555C107.337 128.643 107.417 128.73 107.504 128.81C107.592 128.897 107.679 128.976 107.758 129.064L164.1 72.6661C164.013 72.5786 163.933 72.4912 163.846 72.4117C163.758 72.3242 163.671 72.2447 163.592 72.1572L107.25 128.555Z" fill="white"/>
<path d="M174.905 107.588C174.976 107.182 175.04 106.776 175.103 106.371L141.424 140.084C141.829 140.028 142.234 139.957 142.639 139.885L174.905 107.588Z" fill="white"/>
<path d="M174.697 92.5519C174.641 92.2736 174.578 91.9953 174.514 91.717L126.783 139.496C127.061 139.559 127.339 139.623 127.617 139.679L174.697 92.5519Z" fill="white"/>
<path d="M168.676 122.965L158 133.66C160.057 132.26 162.019 130.654 163.846 128.825C165.673 126.989 167.278 125.025 168.676 122.965Z" fill="white"/>
<path d="M173.647 88.5206C173.568 88.2662 173.48 88.0118 173.393 87.7573L122.826 138.375C123.08 138.462 123.335 138.542 123.589 138.629L173.647 88.5206Z" fill="white"/>
<path d="M109.879 131.012C110.062 131.171 110.244 131.322 110.435 131.473L166.506 75.3455C166.356 75.1626 166.197 74.9718 166.046 74.7889L109.879 131.012Z" fill="white"/>
<path d="M168.667 78.2558C168.532 78.057 168.389 77.8503 168.254 77.6515L112.73 133.23C112.929 133.373 113.128 133.509 113.334 133.644L168.667 78.2558Z" fill="white"/>
<path d="M170.599 81.4044C170.48 81.1898 170.361 80.9671 170.234 80.7524L115.83 135.21C116.045 135.337 116.259 135.457 116.481 135.576L170.599 81.4044Z" fill="white"/>
<path d="M172.266 84.8154C172.163 84.5769 172.06 84.3463 171.957 84.1157L119.189 136.936C119.42 137.039 119.658 137.15 119.888 137.246L172.266 84.8154Z" fill="white"/>
<path d="M173.005 114.561C173.195 114.044 173.378 113.519 173.553 113.002L148.047 138.534C148.571 138.367 149.087 138.184 149.604 137.985L173.005 114.561Z" fill="white"/>
<path d="M152.155 64.2934C151.925 64.19 151.686 64.0787 151.456 63.9833L99.0781 116.413C99.1814 116.652 99.2846 116.883 99.3879 117.113L152.155 64.2934Z" fill="white"/>
<path d="M155.513 66.0188C155.299 65.8916 155.084 65.7723 154.862 65.6531L100.744 119.825C100.863 120.039 100.982 120.262 101.11 120.477L155.513 66.0188Z" fill="white"/>
<path d="M158.61 67.9984C158.412 67.8553 158.213 67.7201 158.007 67.585L102.674 122.973C102.809 123.172 102.952 123.379 103.087 123.577L158.61 67.9984Z" fill="white"/>
<path d="M161.471 70.217C161.289 70.058 161.106 69.9069 160.915 69.7559L104.844 125.883C104.995 126.066 105.154 126.257 105.304 126.44L161.471 70.217Z" fill="white"/>
<path d="M129.92 61.1439C129.515 61.1996 129.109 61.2711 128.704 61.3427L96.4388 93.6405C96.3673 94.046 96.3038 94.4515 96.2402 94.857L129.92 61.1439Z" fill="white"/>
<path d="M113.35 67.5771C111.292 68.9766 109.33 70.5827 107.503 72.4115C105.676 74.2403 104.072 76.2042 102.674 78.2636L113.35 67.5771Z" fill="white"/>
<path d="M148.524 62.8543C148.27 62.7668 148.016 62.6873 147.762 62.5999L97.7031 112.708C97.7826 112.963 97.8699 113.217 97.9573 113.472L148.524 62.8543Z" fill="white"/>
<path d="M135.409 60.7313C135.068 60.7313 134.718 60.7393 134.377 60.7552L95.852 99.3185C95.844 99.6604 95.8361 100.01 95.8281 100.352L135.409 60.7313Z" fill="white"/>
<path d="M98.3391 86.6679C98.1485 87.1848 97.9658 87.7095 97.791 88.2264L123.297 62.6951C122.773 62.862 122.256 63.0449 121.74 63.2437L98.3391 86.6679Z" fill="white"/>
<path d="M144.566 61.7332C144.288 61.6696 144.01 61.606 143.732 61.5503L96.6523 108.677C96.7079 108.955 96.7715 109.234 96.835 109.512L144.566 61.7332Z" fill="white"/>
<path d="M140.232 60.9934C139.922 60.9616 139.621 60.9298 139.311 60.8979L95.9961 104.256C96.0279 104.566 96.0596 104.868 96.0914 105.178L140.232 60.9934Z" fill="white"/>
<path d="M224.382 31.2561C223.985 31.7093 223.683 32.0989 223.484 32.409C223.286 32.7271 223.167 32.9974 223.135 33.2201C223.103 33.4427 223.135 33.6256 223.246 33.7687C223.349 33.9118 223.508 34.0311 223.731 34.1344C224.096 34.3014 224.509 34.3014 224.978 34.1344C225.446 33.9675 225.923 33.6653 226.408 33.236C226.9 32.8066 227.377 32.258 227.845 31.598C228.314 30.9381 228.735 30.1907 229.108 29.3637C229.545 28.3937 229.807 27.4793 229.887 26.6126C229.966 25.7459 229.879 24.9508 229.617 24.2114C229.354 23.4719 228.926 22.8119 228.33 22.2236C227.734 21.6352 226.972 21.1342 226.066 20.7208C224.835 20.1642 223.588 19.9098 222.317 19.9654C221.046 20.0211 219.823 20.3471 218.663 20.9275C217.495 21.5159 216.415 22.3349 215.43 23.3924C214.437 24.4499 213.619 25.7062 212.96 27.1533C212.396 28.3937 212.062 29.5625 211.967 30.6598C211.863 31.757 211.975 32.7589 212.292 33.6733C212.61 34.5877 213.118 35.4066 213.825 36.1222C214.532 36.8379 215.414 37.4421 216.478 37.9192C217.162 38.2293 217.805 38.4758 218.409 38.6587C219.012 38.8416 219.56 38.9767 220.061 39.0642C220.561 39.1517 220.998 39.2073 221.387 39.2153C221.777 39.2232 222.086 39.2153 222.333 39.1755C222.658 39.1596 222.912 39.1914 223.111 39.255C223.31 39.3186 223.461 39.414 223.564 39.5254C223.667 39.6446 223.739 39.7798 223.762 39.9309C223.786 40.0819 223.794 40.241 223.786 40.392L223.58 41.6722C222.968 41.7676 222.333 41.8233 221.657 41.8392C220.99 41.8551 220.291 41.8153 219.568 41.7199C218.846 41.6324 218.099 41.4734 217.328 41.2587C216.558 41.0361 215.779 40.7498 214.977 40.3841C213.492 39.7082 212.261 38.8654 211.291 37.8397C210.314 36.822 209.608 35.677 209.163 34.4207C208.718 33.1564 208.551 31.8047 208.662 30.3576C208.766 28.9105 209.171 27.4236 209.862 25.905C210.394 24.7361 211.045 23.6707 211.824 22.7086C212.602 21.7385 213.468 20.8957 214.413 20.1642C215.358 19.4327 216.383 18.8284 217.463 18.3513C218.552 17.8742 219.664 17.5482 220.792 17.3733C221.928 17.1984 223.071 17.1745 224.223 17.3177C225.375 17.4528 226.503 17.7709 227.591 18.2718C228.759 18.8045 229.752 19.5042 230.586 20.3709C231.42 21.2456 232.047 22.2236 232.468 23.3288C232.889 24.426 233.08 25.6028 233.032 26.8591C232.993 28.1154 232.675 29.3955 232.079 30.6995C231.547 31.8763 230.88 32.902 230.069 33.7846C229.259 34.6672 228.393 35.351 227.448 35.8519C226.511 36.3528 225.542 36.6391 224.541 36.7265C223.54 36.814 222.579 36.647 221.657 36.2256C221.395 36.1063 221.149 35.9553 220.927 35.7803C220.704 35.6054 220.514 35.3987 220.371 35.1601C220.22 34.9216 220.116 34.6592 220.061 34.373C219.997 34.0867 219.997 33.7687 220.053 33.4188C219.179 33.7687 218.385 33.9357 217.67 33.9277C216.955 33.9118 216.272 33.7607 215.621 33.4665C215.12 33.2439 214.731 32.9577 214.437 32.6078C214.143 32.258 213.952 31.8763 213.849 31.4549C213.746 31.0335 213.73 30.5803 213.802 30.1032C213.873 29.6261 214.016 29.1331 214.246 28.6402C214.509 28.0677 214.85 27.5111 215.271 26.9704C215.692 26.4297 216.185 25.9447 216.733 25.5153C217.281 25.086 217.892 24.7202 218.568 24.4181C219.235 24.1159 219.95 23.9092 220.712 23.8058C221.475 23.7025 222.269 23.7025 223.111 23.8217C223.945 23.941 224.803 24.2034 225.685 24.601C226.082 24.7838 226.423 24.9508 226.725 25.1257C227.019 25.2927 227.289 25.4676 227.535 25.6426C227.774 25.8175 227.996 26.0004 228.187 26.1833C228.377 26.3661 228.576 26.5729 228.767 26.7955L224.382 31.2561ZM224.08 26.9863C223.897 26.8671 223.707 26.7637 223.508 26.6762C223.055 26.4695 222.555 26.3979 221.991 26.4536C221.435 26.5092 220.879 26.6762 220.339 26.9545C219.799 27.2328 219.29 27.5986 218.814 28.0756C218.337 28.5448 217.964 29.0854 217.686 29.6977C217.297 30.5644 217.392 31.1289 217.972 31.3913C218.147 31.4708 218.345 31.5185 218.56 31.5424C218.774 31.5583 219.004 31.5265 219.251 31.4469C219.497 31.3674 219.759 31.2243 220.037 31.0335C220.315 30.8347 220.609 30.5644 220.927 30.2225L224.08 26.9863Z" fill="#CBDAFF"/>
<path d="M14.0508 154.094H36.0298H235.668V149.991H14.0826L14.0508 154.094Z" fill="#C9D1FF"/>
<path d="M27.699 23.122C27.6592 23.1539 27.6275 23.1936 27.5957 23.2334C26.2374 24.3704 24.1245 27.5032 24.2516 30.6916C24.4819 36.2733 29.8198 41.8948 30.908 42.9841C31.9724 44.1053 37.4374 49.5916 43.0056 49.9653C46.2544 50.1879 49.5112 48.057 50.6232 46.7292C51.2269 46.0135 49.9878 43.9701 47.859 42.1731C45.8017 40.4398 43.6729 39.5651 42.9818 40.1535L42.9739 40.1456C42.9739 40.1456 41.9253 41.1236 41.2263 43.3181C41.2263 43.3181 38.4144 42.6661 34.975 39.1278C31.7262 35.7883 30.8604 32.6635 30.8604 32.6635C33.0765 32.0194 34.0774 30.9937 34.0774 30.9937L34.0615 30.9778C34.0695 30.9699 34.0774 30.9699 34.0853 30.9619C34.8161 30.3656 33.9741 28.1313 32.2107 25.9686C30.4394 23.7979 28.4218 22.5257 27.699 23.122Z" fill="#CBDAFF"/>
<path d="M107.553 17.4292C109.094 19.0592 110.11 21.2378 110.698 24.7204L105.932 20.6574C105.932 20.6574 105.4 14.9563 98.7832 14.2964C98.7832 14.2884 104.065 14.2884 107.553 17.4292Z" fill="#2D41E3"/>
<path d="M235.273 110.418C235.273 110.418 246.386 74.7969 269.001 69.1198C269.001 69.1198 245.195 85.7298 240.635 112.82L235.273 110.418Z" fill="#7CC6B2"/>
<path d="M238.146 111.706L240.633 112.82C245.192 85.7219 268.998 69.1198 268.998 69.1198C246.336 82.4142 239.783 104.208 238.146 111.706Z" fill="#55B59B"/>
<path d="M231.309 112.16C231.309 112.16 236.662 90.5245 246.584 76.3236C256.505 62.1228 253.725 58.6243 253.725 58.6243C253.725 58.6243 258.085 59.9362 248.569 78.2876C239.045 96.639 236.273 115.436 236.273 115.436L231.309 112.16Z" fill="#7CC6B2"/>
<path d="M253.725 58.6243C253.725 58.6243 253.764 58.6799 253.82 58.7992C256.966 64.0549 246.345 78.55 241.365 90.2223C238.124 97.8157 235.765 107.985 234.494 114.267L236.265 115.436C236.265 115.436 239.046 96.6469 248.562 78.2876C258.086 59.9362 253.725 58.6243 253.725 58.6243Z" fill="#55B59B"/>
<path d="M229.322 114.569L234.628 114.028C234.628 114.028 233.572 84.1634 239.386 60.27C239.386 60.2621 229.831 82.2551 229.322 114.569Z" fill="#7CC6B2"/>
<path d="M231.864 114.307C231.348 105.854 231.252 85.6186 239.386 60.2622C239.386 60.2622 229.831 82.2552 229.322 114.569L231.864 114.307Z" fill="#55B59B"/>
<path d="M225.548 112.597L230.902 113.472C230.902 113.472 227.439 94.5 234.278 81.134C242.213 65.6212 243.007 54.4736 241.816 52.0724C241.816 52.0724 242.61 62.7827 231.696 79.1701C222.641 92.7746 225.548 112.597 225.548 112.597Z" fill="#7CC6B2"/>
<path d="M241.818 53.1696C242.556 68.754 232.754 76.7052 229.712 88.1072C226.892 98.6664 226.273 107.898 227.194 112.875L230.109 113.352L230.721 112.311C230.101 107.985 228.449 92.536 234.279 81.142C242.215 65.6292 243.009 54.4816 241.818 52.0803C241.818 52.0724 241.786 52.4461 241.818 53.1696Z" fill="#55B59B"/>
<path d="M223.373 115.881C223.373 115.881 223.175 99.0562 216.828 85.5073C216.828 85.5073 224.565 95.5576 227.742 115.881H223.373Z" fill="#7CC6B2"/>
<path d="M225.367 115.929C225.375 111.158 224.343 100.416 216.82 85.5549C223.167 99.1038 223.366 115.929 223.366 115.929H225.367Z" fill="#55B59B"/>
<path d="M240.627 137.508H224.168L218.211 107.794H246.584L240.627 137.508Z" fill="#BF7D4F"/>
<path d="M227.623 137.508L224.248 120.874C223.771 118.544 225.391 116.31 227.751 116.032L242.033 114.346H219.529L224.168 137.516H227.623V137.508Z" fill="#A14E28"/>
<path d="M18.294 138.987C18.294 138.987 3.20176 81.7383 14.3223 72.992C25.4429 64.2457 59.599 65.8359 66.7479 71.4018C73.8969 76.9676 76.2798 138.987 76.2798 138.987H18.294Z" fill="#33419F"/>
<path d="M23.457 71.0042C23.457 71.0042 32.846 69.4219 35.0542 93.9275C37.2624 118.425 37.747 136.999 37.747 136.999" stroke="#3851AC" stroke-miterlimit="10"/>
<path d="M36.166 70.4794C36.166 70.4794 45.555 68.8971 47.7632 93.4027C49.9714 117.9 50.456 136.474 50.456 136.474" stroke="#3851AC" stroke-miterlimit="10"/>
<path d="M48.873 69.9467C48.873 69.9467 58.262 68.3644 60.4702 92.87C62.6784 117.368 63.163 135.942 63.163 135.942" stroke="#3851AC" stroke-miterlimit="10"/>
<path d="M38.1504 140.577C38.1504 140.577 51.1773 81.7861 51.9717 80.2595C52.766 78.7328 75.0866 69.5492 75.0866 69.5492L89.5195 72.9921L102.062 80.8558L104.739 86.1513L112.078 115.332C112.078 115.332 115.454 115.118 115.454 119.483L138.665 122.981L139.062 140.999L38.1504 140.577Z" fill="#D1377A"/>
<path d="M47.6035 141.444L54.1488 111.722C54.1488 111.722 63.077 135.107 65.6586 138.383C68.2401 141.658 47.6035 141.444 47.6035 141.444Z" fill="#BD2965"/>
<path d="M73.1973 97.9587L82.3241 121.121L78.9482 125.708C78.9482 125.708 84.6991 120.683 85.2949 120.898C85.8906 121.113 87.0821 126.798 87.0821 126.798L87.6778 123.085L115.05 124.174L87.6778 119.801L83.7142 118.274L73.1973 97.9587Z" fill="#BD2965"/>
<path d="M95.0176 99.2708C95.0176 99.2708 98.1949 112.382 98.3935 113.909C98.592 115.436 96.4077 121.121 96.4077 121.121L99.3864 121.558L100.181 113.694L95.0176 99.2708Z" fill="#BD2965"/>
<path d="M114.66 126.75V137.564H154.384V131.171L141.778 123.569C140.794 122.973 139.626 122.75 138.49 122.933L114.66 126.75Z" fill="#F1D4C3"/>
<path d="M156.043 122.933L143.93 124.873L154.383 131.171V137.564H171.938V131.171L159.332 123.569C158.347 122.981 157.179 122.75 156.043 122.933Z" fill="#F1D4C3"/>
<path d="M138.467 125.112L146.942 131.012" stroke="#EABEA6" stroke-miterlimit="10" stroke-linecap="round"/>
<path d="M133.559 125.931L140.104 131.012" stroke="#EABEA6" stroke-miterlimit="10" stroke-linecap="round"/>
<path d="M157.213 125.764L164.95 131.012" stroke="#EABEA6" stroke-miterlimit="10" stroke-linecap="round"/>
<path d="M152.9 126.09L159.589 131.012" stroke="#EABEA6" stroke-miterlimit="10" stroke-linecap="round"/>
<path d="M202.139 130.956H135.487L119.418 133.246V137.73H202.139V130.956Z" fill="#6F9CFF"/>
<path d="M135.487 130.956L119.418 133.246V137.73H135.487V130.956Z" fill="#3D7AEF"/>
<path d="M221.387 120.683L150.406 121.502L169.756 48.5898L239.49 52.4859L221.387 120.683Z" fill="#6F9CFF"/>
<path opacity="0.31" d="M175.141 121.216L201.099 120.922L207.335 99.1913L181.813 96.8695L175.141 121.216Z" fill="#6F9CFF"/>
<path d="M235.176 49.011L165.633 44.614L169.755 48.5896L239.489 52.4857L235.176 49.011Z" fill="#C9D1FF"/>
<path d="M145.609 118.282L150.407 121.502L169.757 48.5896L165.634 44.614L145.609 118.282Z" fill="#3D7AEF"/>
<path d="M206.009 92.1305L185.031 91.7329C186.811 91.7329 188.256 94.0308 188.256 96.8694C188.256 99.708 186.811 102.006 185.031 102.006L206.009 101.608C207.654 101.608 208.988 99.4853 208.988 96.8694C208.988 94.2455 207.654 92.1305 206.009 92.1305Z" fill="#C9D1FF"/>
<path d="M188.257 96.8694C188.257 99.708 186.811 102.006 185.032 102.006C183.252 102.006 181.807 99.708 181.807 96.8694C181.807 94.0308 183.252 91.7329 185.032 91.7329C186.811 91.7329 188.257 94.0308 188.257 96.8694Z" fill="#778BFF"/>
<path d="M203.839 128.722L188.254 96.8616C188.254 99.7001 186.808 101.998 185.029 101.998C184.346 101.998 183.71 101.656 183.194 101.084L196.705 128.984C197.277 130.169 196.499 131.608 195.276 131.608H178.531V137.619H199.017C203.163 137.619 205.808 132.745 203.839 128.722Z" fill="#3D7AEF"/>
<path d="M224.477 128.722L208.892 96.8616H188.264L203.848 128.722C205.787 132.69 203.237 137.484 199.178 137.604V137.611H219.663C223.794 137.619 226.439 132.745 224.477 128.722Z" fill="#6F9CFF"/>
<path d="M199.637 69.0323C199.335 70.2568 198.437 71.0519 197.643 70.8054C196.849 70.5669 196.452 69.3742 196.753 68.1577C197.055 66.9332 197.953 66.1381 198.747 66.3845C199.541 66.6231 199.939 67.8078 199.637 69.0323Z" fill="white"/>
<path d="M92.5229 63.4029L89.6077 77.4049C89.6077 77.4049 85.9935 79.7267 82.7288 78.7805C79.4641 77.8343 78.5586 74.781 78.5586 73.2703C78.5586 71.7596 82.3078 56.7397 82.3078 56.7397L92.5229 63.4029Z" fill="#EABEA6"/>
<path d="M78.3841 38.1498C76.152 42.674 76.3188 53.6705 81.9903 60.4847C87.6618 67.2989 91.6096 69.7558 95.2238 69.5729C98.8301 69.3821 106.567 63.5141 108.974 57.0816C111.38 50.6491 112.238 42.1254 113.271 39.1039C114.304 36.0745 108.116 29.0695 105.884 28.1233C103.652 27.1772 86.804 21.1183 78.3841 38.1498Z" fill="#F1D4C3"/>
<path d="M100.506 31.6459C96.5026 25.7063 92.2212 33.1646 87.1852 36.6154C79.0592 42.1812 80.0521 45.1629 81.8234 67.1082C82.3239 73.3579 77.0575 88.0278 76.1758 88.497C68.3834 92.6634 64.9678 74.2961 51.9726 80.2595C49.1051 76.1726 63.268 58.7118 63.9034 52.7166C66.2467 30.652 72.4901 14.5349 96.7489 17.1349C104.279 17.946 110.276 22.8916 113.326 28.5688C118.402 38.0068 109.823 54.9906 109.823 54.9906C109.823 54.9906 111.007 46.9042 111.865 44.4473C112.723 41.9904 113.803 33.2997 112.802 37.4105C112.453 38.8894 104.652 37.8081 100.506 31.6459Z" fill="#2A2E6F"/>
<path d="M162.495 2.19446H137.355C134.519 2.19446 132.224 4.72294 132.224 7.84776V19.2736L124.217 25.1337L132.224 30.0396V32.0989C132.224 35.2237 134.519 37.7522 137.355 37.7522H162.495C165.331 37.7522 167.627 35.2237 167.627 32.0989V7.84776C167.627 4.73089 165.331 2.19446 162.495 2.19446Z" fill="#CBDAFF"/>
<path d="M16.9761 55.7617C16.9761 57.5905 15.4113 59.0773 13.489 59.0773C11.5668 59.0773 10.002 57.5905 10.002 55.7617C10.002 53.9329 11.5668 52.446 13.489 52.446C15.4113 52.446 16.9761 53.9329 16.9761 55.7617Z" fill="#B696DF"/>
<path d="M192.029 28.2109C192.029 28.839 191.497 29.3399 190.838 29.3399C190.179 29.3399 189.646 28.831 189.646 28.2109C189.646 27.5827 190.179 27.0818 190.838 27.0818C191.497 27.0818 192.029 27.5827 192.029 28.2109Z" fill="#B696DF"/>
<path d="M113.081 3.02145C113.081 4.69121 111.659 6.04291 109.904 6.04291C108.148 6.04291 106.727 4.69121 106.727 3.02145C106.727 1.3517 108.148 0 109.904 0C111.659 0.0079512 113.081 1.35965 113.081 3.02145Z" fill="#F3F4FF"/>
<path d="M123.39 92.3771C125.145 92.3771 126.568 91.0244 126.568 89.3557C126.568 87.687 125.145 86.3342 123.39 86.3342C121.635 86.3342 120.213 87.687 120.213 89.3557C120.213 91.0244 121.635 92.3771 123.39 92.3771Z" fill="#B696DF"/>
<path d="M97.4402 44.5188C97.1542 45.6956 96.4393 46.5066 95.8277 46.3237C95.224 46.1488 94.9619 45.0515 95.2399 43.8747C95.5258 42.698 96.2407 41.8869 96.8524 42.0698C97.456 42.2527 97.7182 43.35 97.4402 44.5188Z" fill="#53353D"/>
<path d="M92.9773 52.7484C91.4839 52.3031 90.491 51.3171 90.7611 50.5459C91.0312 49.7746 92.461 49.5122 93.9543 49.9575C95.4476 50.4028 96.4405 51.3887 96.1705 52.16C95.8924 52.9392 94.4627 53.2016 92.9773 52.7484Z" fill="#EFCDBB"/>
<path d="M106.384 55.0381C105.002 54.8234 104.009 54.076 104.152 53.3604C104.295 52.6448 105.534 52.2393 106.909 52.446C108.291 52.6607 109.284 53.4081 109.141 54.1237C108.998 54.8473 107.767 55.2528 106.384 55.0381Z" fill="#EFCDBB"/>
<path d="M108.346 47.5561C108.06 48.7329 107.346 49.5439 106.734 49.3611C106.13 49.1861 105.868 48.0889 106.146 46.9121C106.424 45.7353 107.147 44.9243 107.759 45.1072C108.37 45.2821 108.632 46.3794 108.346 47.5561Z" fill="#53353D"/>
<path d="M90.8945 55.865C90.8945 55.865 94.6358 60.4051 103.779 59.6975C103.779 59.6975 100.585 64.0229 96.5899 63.029C93.7859 62.3373 91.8001 56.7237 90.8945 55.865Z" fill="#FDFFFF"/>
<path d="M101.722 45.7114C101.722 45.7114 102.143 46.3316 102.516 47.3414C102.715 47.8423 102.889 48.4466 103.024 49.1145C103.159 49.7824 103.247 50.506 103.199 51.3011C103.151 51.7066 103.128 52.1042 102.857 52.6131L102.754 52.7959L102.738 52.8198L102.683 52.8914L102.659 52.9152L102.619 52.9629C102.548 53.0345 102.524 53.0663 102.413 53.1617C102.317 53.2492 102.214 53.3287 102.119 53.4002L101.857 53.5513C101.158 53.925 100.498 54.0284 99.9423 54.0761C98.8303 54.1715 98.1074 53.9489 98.1074 53.9489C98.1074 53.9489 98.7429 53.6467 99.704 53.1935C100.149 52.9629 100.681 52.7005 101.086 52.3666L101.229 52.2473C101.253 52.2155 101.285 52.1837 101.309 52.1598C101.332 52.1519 101.404 52.0406 101.444 51.9849L101.483 51.9372L101.499 51.9134L101.507 51.9054C101.428 52.0088 101.483 51.9293 101.467 51.9531V51.9452L101.475 51.8975C101.523 51.7941 101.579 51.476 101.595 51.1978C101.634 50.5935 101.618 49.9176 101.61 49.2895C101.595 48.6534 101.587 48.0491 101.602 47.5243C101.626 46.4509 101.722 45.7114 101.722 45.7114Z" fill="#E3A78F"/>
<path d="M85.8099 43.1908C85.8099 48.7964 82.8947 53.3445 79.3043 53.3445C75.706 53.3445 71.377 48.7964 71.377 43.1908C71.377 37.5852 75.706 33.0371 79.3043 33.0371C82.9026 33.0451 85.8099 37.5852 85.8099 43.1908Z" fill="#2D41E3"/>
<path d="M81.7363 52.2234L88.4087 60.2143C88.9727 60.8902 89.767 61.3275 90.6407 61.4388L93.0475 61.733" stroke="#2D41E3" stroke-width="2" stroke-miterlimit="10" stroke-linecap="round"/>
<path d="M92.8501 62.9097C93.5015 62.9892 94.0972 62.5201 94.1767 61.8681C94.2561 61.2161 93.7874 60.6198 93.1361 60.5403C92.4847 60.4608 91.889 60.9299 91.8096 61.5819C91.7301 62.2339 92.1988 62.8302 92.8501 62.9097Z" fill="#2D41E3"/>
<path d="M84.222 43.1908C84.222 48.7964 81.3068 53.3445 77.7164 53.3445C74.1181 53.3445 69.7891 48.7964 69.7891 43.1908C69.7891 37.5852 74.1181 33.0371 77.7164 33.0371C81.3147 33.0451 84.222 37.5852 84.222 43.1908Z" fill="#6D84FF"/>
<path d="M75.334 37.5852C75.334 37.5852 76.7479 12.4594 96.3439 13.3102C103.946 13.6441 107.56 17.4289 107.56 17.4289C107.56 17.4289 104.454 14.2882 98.2583 14.2882C91.4985 14.2882 82.9198 19.1782 79.7187 38.7222L75.334 37.5852Z" fill="#6D84FF"/>
<path d="M159.556 27.4236L141.016 27.4951C139.642 27.5031 138.53 26.3899 138.522 25.0223L138.49 14.2564C138.482 12.8888 139.594 11.7677 140.961 11.7597L159.5 11.6882C160.874 11.6802 161.986 12.7934 161.994 14.161L162.026 24.9269C162.034 26.3025 160.93 27.4156 159.556 27.4236Z" fill="#DE9200"/>
<path d="M161.995 15.1708L161.987 13.7236C161.987 12.5946 161.145 11.6802 160.12 11.6802L140.333 11.7597C139.309 11.7676 138.475 12.682 138.482 13.8191L138.49 15.2662L150.27 23.8853L161.995 15.1708Z" fill="#ECBC61"/>
<path d="M258.283 137.731H0V149.967H258.283V137.731Z" fill="#C9D1FF"/>
<path d="M258.283 137.731H0V139.257H258.283V137.731Z" fill="#F3F4FF"/>
<path d="M25.5217 137.731H0V149.967H25.5217V137.731Z" fill="#97A6FF"/>
<path d="M25.5217 137.731H0V139.257H25.5217V137.731Z" fill="#778BFF"/>
<path d="M14.084 149.96V160.355C14.084 160.355 37.2942 160.355 77.7652 160.355C118.236 160.355 125.671 160.355 143.821 160.355C161.972 160.355 155.72 160.355 171.79 160.355C187.859 160.355 201.541 160.355 218.5 160.355C235.459 160.355 236.067 160.355 236.067 160.355V149.991L14.084 149.96Z" fill="#97A6FF"/>
<path d="M36.1027 149.96H14.084V163.62C14.084 163.62 21.8048 173.869 36.1027 182.544V149.96Z" fill="#778BFF"/>
</svg>
