<svg width="500" height="500" fill="none" xmlns="http://www.w3.org/2000/svg"><path d="M103.906 143.75H67.578c-9.693 0-17.578 7.885-17.578 17.578s7.885 17.578 17.578 17.578h36.328c9.693 0 17.578-7.885 17.578-17.578s-7.885-17.578-17.578-17.578zm0 23.438H67.578a5.866 5.866 0 01-5.86-5.86 5.865 5.865 0 015.86-5.859h36.328a5.865 5.865 0 015.86 5.859 5.866 5.866 0 01-5.86 5.86zm17.578 41.015c0-9.693-7.885-17.578-17.578-17.578H67.578c-9.693 0-17.578 7.885-17.578 17.578 0 7.639 4.9 14.152 11.719 16.57v155.922C54.899 383.114 50 389.627 50 397.266c0 9.693 7.885 17.578 17.578 17.578h36.328c9.693 0 17.578-7.885 17.578-17.578 0-7.639-4.899-14.152-11.718-16.571V224.773c6.819-2.418 11.718-8.931 11.718-16.57zm-17.578 194.922H67.578a5.865 5.865 0 01-5.86-5.859 5.866 5.866 0 015.86-5.86h36.328a5.866 5.866 0 015.86 5.86 5.865 5.865 0 01-5.86 5.859zm-30.469-23.437V225.781h24.61v153.907h-24.61zm30.469-165.626H67.578a5.865 5.865 0 01-5.86-5.859 5.865 5.865 0 015.86-5.859h36.328a5.865 5.865 0 015.86 5.859 5.865 5.865 0 01-5.86 5.859zm11.719 224.219c-5.373 0-7.827-2.015-11.223-4.802-4.051-3.325-9.092-7.463-18.66-7.463s-14.608 4.138-18.66 7.463c-3.395 2.787-5.85 4.802-11.223 4.802a5.86 5.86 0 000 11.719c9.568 0 14.609-4.138 18.66-7.463 3.396-2.788 5.85-4.803 11.223-4.803 5.374 0 7.828 2.015 11.224 4.803 4.05 3.325 9.091 7.463 18.659 7.463a5.86 5.86 0 000-11.719zm280.469-259.375h36.328c9.692 0 17.578-7.885 17.578-17.578s-7.886-17.578-17.578-17.578h-36.328c-9.692 0-17.578 7.885-17.578 17.578s7.886 17.578 17.578 17.578zm0-23.437h36.328a5.865 5.865 0 015.859 5.859 5.866 5.866 0 01-5.859 5.86h-36.328a5.867 5.867 0 01-5.86-5.86 5.866 5.866 0 015.86-5.859zM450 208.203c0-9.693-7.886-17.578-17.578-17.578h-36.328c-9.692 0-17.578 7.885-17.578 17.578 0 7.638 4.899 14.152 11.718 16.57v155.922c-6.819 2.419-11.718 8.932-11.718 16.571 0 9.693 7.886 17.578 17.578 17.578h36.328c9.692 0 17.578-7.885 17.578-17.578 0-7.639-4.899-14.152-11.719-16.571V224.773c6.82-2.418 11.719-8.932 11.719-16.57zm-17.578 194.922h-36.328a5.866 5.866 0 01-5.86-5.859 5.866 5.866 0 015.86-5.86h36.328a5.865 5.865 0 015.859 5.86 5.865 5.865 0 01-5.859 5.859zm-30.469-23.437V225.781h24.609v153.907h-24.609zm30.469-165.626h-36.328a5.866 5.866 0 01-5.86-5.859 5.866 5.866 0 015.86-5.859h36.328a5.865 5.865 0 015.859 5.859 5.865 5.865 0 01-5.859 5.859zm11.719 224.219c-5.374 0-7.828-2.015-11.224-4.802-4.051-3.325-9.091-7.463-18.659-7.463s-14.609 4.138-18.66 7.463c-3.395 2.787-5.85 4.802-11.223 4.802a5.859 5.859 0 00-5.859 5.86 5.858 5.858 0 005.859 5.859c9.568 0 14.609-4.138 18.659-7.463 3.396-2.788 5.85-4.803 11.224-4.803 5.373 0 7.828 2.015 11.223 4.803 4.051 3.325 9.092 7.463 18.66 7.463a5.86 5.86 0 000-11.719zM205.664 214.062a5.86 5.86 0 00-5.859 5.86v5.859h-11.719v-5.859a5.86 5.86 0 10-11.719 0v49.219a5.86 5.86 0 005.86 5.859h23.437a5.859 5.859 0 005.859-5.859v-49.219a5.86 5.86 0 00-5.859-5.86zm-5.859 49.219h-11.719V237.5h11.719v25.781zm82.812-12.89h17.578v18.75a5.859 5.859 0 0011.719 0v-18.75h11.719v18.75a5.858 5.858 0 005.859 5.859 5.859 5.859 0 005.86-5.859v-25.782c0-16.154-13.143-29.297-29.297-29.297-16.155 0-29.297 13.143-29.297 29.297v1.172a5.859 5.859 0 005.859 5.86zm23.438-24.61c8.069 0 14.887 5.467 16.943 12.891h-33.886c2.055-7.424 8.873-12.891 16.943-12.891zm-22.113 101.604l13.24 13.24-13.24 13.24a5.86 5.86 0 108.288 8.286l13.239-13.239 13.239 13.239a5.842 5.842 0 004.144 1.716 5.857 5.857 0 004.143-10.002l-13.239-13.24 13.239-13.24a5.86 5.86 0 00-8.286-8.286l-13.24 13.239-13.239-13.239a5.86 5.86 0 00-8.288 8.286z" fill="#F5F7FA"/><path d="M360.938 190.625H139.062a5.86 5.86 0 00-5.859 5.859v136.719C133.203 397.605 185.598 450 250 450c64.402 0 116.797-52.395 116.797-116.797V196.484a5.859 5.859 0 00-5.859-5.859zM228.125 292.578c0-12.062 9.813-21.875 21.875-21.875s21.875 9.813 21.875 21.875-9.813 21.875-21.875 21.875-21.875-9.813-21.875-21.875zm16.016 33.072v7.553c0 14.406-6.178 27.392-16.016 36.463v-51.625a33.476 33.476 0 0016.016 7.609zm-99.219-123.306h99.219v57.162c-13.835 2.445-24.768 13.378-27.213 27.213h-72.006v-84.375zm71.484 96.094v79.277a49.214 49.214 0 01-16.015 4.74v-84.017h16.015zm-71.484 0h16.016v11.328a5.859 5.859 0 1011.718 0v-11.328h16.016v84.017a49.22 49.22 0 01-16.016-4.74v-44.512a5.859 5.859 0 10-11.718 0v36.463c-9.839-9.071-16.016-22.057-16.016-36.463v-34.765zM250 438.281c-40.594 0-75.882-23.14-93.375-56.921 10.442 8.237 23.605 13.171 37.906 13.171 24.475 0 45.639-14.416 55.469-35.199 9.83 20.783 30.994 35.199 55.469 35.199 14.301 0 27.464-4.934 37.906-13.171-17.493 33.781-52.781 56.921-93.375 56.921zm105.078-105.078c0 27.355-22.255 49.609-49.609 49.609-27.355 0-49.61-22.254-49.61-49.609v-7.553c13.835-2.445 24.768-13.378 27.213-27.212h72.006v34.765zm0-46.484h-72.006c-2.445-13.835-13.378-24.767-27.213-27.213v-57.162h99.219v84.375zM167.791 173.047a5.859 5.859 0 005.859 5.859h152.701a5.858 5.858 0 005.859-5.859v-21.074c7.963-8.665 12.321-19.811 12.321-31.661 0-25.846-21.028-46.874-46.875-46.874a46.87 46.87 0 00-31.064 11.782 17.606 17.606 0 00-3.508-5.92 17.504 17.504 0 004.495-11.722C267.578 57.885 259.692 50 250 50c-9.693 0-17.578 7.885-17.578 17.578a17.5 17.5 0 004.498 11.719 17.59 17.59 0 00-3.512 5.923 46.877 46.877 0 00-31.064-11.782c-25.847 0-46.875 21.028-46.875 46.874 0 11.85 4.358 22.997 12.322 31.661v21.074zm99.787-70.9c6.36-10.509 17.745-16.99 30.078-16.99 19.385 0 35.156 15.77 35.156 35.155 0 8.748-3.174 16.982-8.971 23.438h-6.105a23.284 23.284 0 003.228-11.848c0-12.924-10.514-23.438-23.437-23.438h-29.949v-6.317zm0 18.035h29.948c6.462 0 11.719 5.257 11.719 11.719s-5.257 11.719-11.719 11.719v.13h-29.948v-23.568zM250 61.719a5.865 5.865 0 015.859 5.86A5.865 5.865 0 01250 73.437a5.865 5.865 0 01-5.859-5.86 5.865 5.865 0 015.859-5.86zm-5.859 29.297a5.865 5.865 0 015.859-5.86 5.865 5.865 0 015.859 5.86v52.734h-11.718V91.016zm76.35 64.453v11.719H179.509v-11.719h140.982zm-129.996-23.568c0-6.462 5.257-11.719 11.718-11.719h30.209v23.568h-30.209v-.13c-6.461 0-11.718-5.257-11.718-11.719zm-23.307-11.589c0-19.385 15.771-35.156 35.156-35.156 12.332 0 23.718 6.482 30.078 16.992v6.316h-30.209c-12.923 0-23.437 10.514-23.437 23.438 0 4.321 1.18 8.368 3.228 11.848h-5.845c-5.797-6.455-8.971-14.689-8.971-23.438z" fill="#F5F7FA"/></svg>