<svg width="64" height="64" fill="none" xmlns="http://www.w3.org/2000/svg"><path d="M44.072 33.475l-.002-.005a1.25 1.25 0 00-2.264.004l-7.635 16.378a1.25 1.25 0 002.266 1.056l2.384-5.114h8.235l2.383 5.114a1.25 1.25 0 102.266-1.056l-7.633-16.377zm-4.085 9.819l2.952-6.333 2.951 6.333h-5.903z" fill="#0094FF"/><path d="M63.94 61.618l-3.437-10.649a19.796 19.796 0 001.874-11.523 19.462 19.462 0 00-5.557-11.132 19.556 19.556 0 00-16.272-5.604 19.52 19.52 0 00-2.028-11.304 1.25 1.25 0 10-2.223 1.143 17.08 17.08 0 01-3.128 19.946c-5.291 5.291-13.592 6.524-20.186 2.999a1.25 1.25 0 00-.973-.087L3.188 38.25l2.844-8.822a1.25 1.25 0 00-.087-.973C2.42 21.862 3.653 13.56 8.944 8.27c5.294-5.292 13.314-6.546 19.955-3.121a1.25 1.25 0 001.146-2.222A19.52 19.52 0 0018.164.966 19.485 19.485 0 007.176 6.5a19.458 19.458 0 00-5.555 11.132 19.813 19.813 0 001.873 11.524L.06 39.806a1.25 1.25 0 001.574 1.573l10.648-3.433a19.816 19.816 0 0011.168 1.919 19.56 19.56 0 005.613 16.21 19.455 19.455 0 0011.13 5.556 19.815 19.815 0 0011.525-1.873l10.648 3.434a1.252 1.252 0 001.268-.306 1.25 1.25 0 00.305-1.268zm-11.95-4.399a1.25 1.25 0 00-.973.087c-6.7 3.581-14.812 2.376-20.187-2.999a17.077 17.077 0 01-4.783-14.937 19.447 19.447 0 008.89-5.107 19.466 19.466 0 005.125-8.954 17.072 17.072 0 0114.99 4.773c5.294 5.293 6.527 13.594 3 20.186-.16.3-.192.65-.088.974l2.847 8.821-8.821-2.844z" fill="#0094FF"/><path d="M29.944 19.537c0-5.364-4.362-9.727-9.723-9.727-5.364 0-9.727 4.363-9.727 9.727 0 5.361 4.363 9.723 9.727 9.723 2.23 0 4.284-.756 5.926-2.023l3.178 3.178a1.246 1.246 0 001.768 0 1.25 1.25 0 000-1.768l-3.177-3.177a9.673 9.673 0 002.028-5.933zm-3.815 4.147l-2.938-2.939a1.25 1.25 0 00-1.768 1.768l2.938 2.938a7.181 7.181 0 01-4.14 1.31c-3.986 0-7.228-3.241-7.228-7.224 0-3.985 3.242-7.227 7.227-7.227 3.983 0 7.224 3.242 7.224 7.227a7.18 7.18 0 01-1.315 4.147zm7.945-15.247a1.25 1.25 0 00.891-2.127l-.004-.003a1.248 1.248 0 00-1.766-.013 1.252 1.252 0 00.879 2.143z" fill="#0094FF"/></svg>