<svg width="64" height="64" fill="none" xmlns="http://www.w3.org/2000/svg"><g clip-path="url(#clip0)" fill="#fff"><path d="M42.443 6.68a1.25 1.25 0 00.9-2.118l-.004-.003a1.248 1.248 0 00-1.766-.029 1.252 1.252 0 00.87 2.15z"/><path d="M61.91 41.198l-10.326-7.306a1.251 1.251 0 00-1.972 1.02v2.928H36.366v-5.483a16.319 16.319 0 007.246-4.24c4.858-4.875 6.176-12.348 3.278-18.596a1.25 1.25 0 10-2.268 1.052c2.406 5.187 1.387 11.367-2.519 15.506a10.503 10.503 0 00-4.33-6.161 7.244 7.244 0 001.475-4.39c0-4.006-3.252-7.266-7.25-7.266-3.995 0-7.246 3.26-7.246 7.266a7.25 7.25 0 001.474 4.389 10.508 10.508 0 00-4.332 6.161c-5.164-5.465-5.076-14.126.265-19.485a13.875 13.875 0 0114.997-3.098 1.25 1.25 0 00.928-2.321A16.372 16.372 0 0020.39 4.828c-6.402 6.423-6.401 16.87 0 23.289a16.672 16.672 0 001.737 1.517 16.22 16.22 0 005.504 2.722v5.483H14.388v-2.926a1.25 1.25 0 00-1.972-1.02L2.09 41.197a1.25 1.25 0 000 2.04l10.325 7.31a1.25 1.25 0 001.972-1.02v-2.931H27.63v4.544h-2.913a1.25 1.25 0 00-1.023 1.968l7.282 10.36a1.25 1.25 0 002.045 0l7.285-10.36a1.25 1.25 0 00-1.023-1.968h-2.917v-4.544h13.246v2.93a1.25 1.25 0 001.972 1.02L61.91 43.24a1.25 1.25 0 000-2.041zM31.998 10.762c2.62 0 4.75 2.138 4.75 4.767 0 2.63-2.13 4.77-4.75 4.77-2.617 0-4.746-2.14-4.746-4.77 0-2.629 2.13-4.767 4.746-4.767zm-7.892 17.22a7.986 7.986 0 014.029-6.308 7.183 7.183 0 003.863 1.124 7.19 7.19 0 003.865-1.123 7.982 7.982 0 014.028 6.31A13.781 13.781 0 0132 30.444c-2.86 0-5.59-.862-7.894-2.462zm28.006 19.13v-1.765c0-.69-.56-1.25-1.25-1.25H35.116c-.69 0-1.25.56-1.25 1.25v7.043c0 .69.56 1.25 1.25 1.25h1.76L32 60.577l-4.876-6.937h1.757c.69 0 1.25-.56 1.25-1.25v-7.043c0-.69-.56-1.25-1.25-1.25H13.138c-.69 0-1.25.56-1.25 1.25v1.764L4.976 42.22l6.912-4.89v1.76c0 .691.56 1.25 1.25 1.25H28.88c.69 0 1.25-.559 1.25-1.25v-6.252a16.64 16.64 0 003.736 0v6.253c0 .69.56 1.25 1.25 1.25h15.746c.69 0 1.25-.56 1.25-1.25v-1.762l6.912 4.89-6.912 4.893z"/></g><defs><clipPath id="clip0"><path fill="#fff" d="M0 0h64v64H0z"/></clipPath></defs></svg>