<svg width="24" height="22" viewBox="0 0 24 22" fill="none" xmlns="http://www.w3.org/2000/svg">
<path d="M21.3333 0.333344H2.66667C1.18667 0.333344 0 1.53334 0 3.00001V19C0 20.4667 1.18667 21.6667 2.66667 21.6667H21.3333C22.8 21.6667 24 20.4667 24 19V3.00001C24 1.53334 22.8 0.333344 21.3333 0.333344ZM10.6667 15H8.66667V12.3333H6V15H4V7.00001H6V10.3333H8.66667V7.00001H10.6667V15ZM20 13.6667C20 14.4 19.4 15 18.6667 15H17.6667V17H15.6667V15H14.6667C13.9333 15 13.3333 14.4 13.3333 13.6667V8.33334C13.3333 7.60001 13.9333 7.00001 14.6667 7.00001H18.6667C19.4 7.00001 20 7.60001 20 8.33334V13.6667ZM15.3333 13H18V9.00001H15.3333V13Z" fill="#0094FF"/>
</svg>
