<svg width="32" height="32" fill="none" xmlns="http://www.w3.org/2000/svg"><path d="M21.149 2.5H32V0H0v2.5h10.726a5.261 5.261 0 004.024 4.488v5.387h-2.442l-1.245 5.647-1.246-5.647H2.433l-2.426 11h4.93v.969a6.163 6.163 0 006.157 6.156 6.123 6.123 0 003.47-1.074 1.688 1.688 0 102.871 0 6.123 6.123 0 003.471 1.074 6.163 6.163 0 006.157-6.156v-.969h4.93l-2.426-11h-7.384l-1.245 5.647-1.246-5.647H17.25V6.959A5.263 5.263 0 0021.149 2.5zM4.442 14.875h3.366l1.324 6H3.118l1.324-6zM11.094 28a3.66 3.66 0 01-3.656-3.656v-.969h7.312v.969A3.66 3.66 0 0111.094 28zm13.098-13.125h3.366l1.324 6h-6.014l1.324-6zm.37 8.5v.969A3.66 3.66 0 0120.907 28a3.66 3.66 0 01-3.656-3.656v-.969h7.313zm-5.555-2.5h-6.014l1.324-6h3.366l1.324 6zM13.26 2.5h5.355a2.754 2.754 0 01-2.677 2.125A2.754 2.754 0 0113.26 2.5z" fill="#0094FF"/></svg>