<svg width="20" height="24" fill="none" xmlns="http://www.w3.org/2000/svg"><path d="M16.985 2.46C15.333.872 13.047 0 10.548 0 6.73 0 4.382 1.565 3.084 2.878 1.485 4.495.568 6.644.568 8.77c0 2.672 1.118 4.722 2.99 5.485a.991.991 0 00.375.078c.395 0 .708-.259.816-.673.063-.238.21-.824.273-1.079.136-.503.026-.744-.27-1.094-.542-.64-.794-1.398-.794-2.384 0-2.927 2.18-6.038 6.22-6.038 3.205 0 5.197 1.822 5.197 4.754 0 1.851-.399 3.565-1.123 4.827-.503.876-1.388 1.921-2.746 1.921-.588 0-1.115-.24-1.448-.662-.315-.397-.418-.91-.292-1.446a28.67 28.67 0 01.527-1.846c.343-1.114.668-2.166.668-3.006 0-1.435-.882-2.4-2.196-2.4-1.67 0-2.977 1.695-2.977 3.86a5.74 5.74 0 00.41 2.16c-.21.892-1.46 6.19-1.698 7.189-.137.583-.963 5.189.404 5.556 1.536.413 2.909-4.073 3.049-4.58.113-.412.509-1.971.752-2.93.741.714 1.935 1.197 3.097 1.197 2.19 0 4.159-.985 5.545-2.774 1.344-1.736 2.084-4.154 2.084-6.81 0-2.077-.891-4.124-2.446-5.617z" fill="#0094FF"/></svg>