<svg width="64" height="64" fill="none" xmlns="http://www.w3.org/2000/svg"><g clip-path="url(#clip0)" fill="#0094FF"><path d="M47.174.78a1.25 1.25 0 10-.65 2.414C55.342 5.568 61.5 13.614 61.5 22.758c0 11.172-9.088 20.262-20.26 20.262-11.17 0-20.26-9.09-20.26-20.262 0-9.139 6.155-17.183 14.967-19.56a1.25 1.25 0 00-.651-2.414c-9.9 2.672-16.815 11.708-16.815 21.974 0 3.696.886 7.189 2.456 10.278l-2.487 2.487a3.824 3.824 0 00-.734 4.367l-5.981 5.981a2.39 2.39 0 00-1.018-.23h-.005a2.39 2.39 0 00-1.7.703L1.788 53.57a6.12 6.12 0 000 8.646A6.072 6.072 0 006.112 64a6.072 6.072 0 004.324-1.785l7.217-7.222a2.396 2.396 0 00.477-2.724l5.983-5.983a3.81 3.81 0 001.663.38h.003a3.792 3.792 0 002.701-1.116l2.486-2.485A22.618 22.618 0 0041.24 45.52C53.79 45.52 64 35.309 64 22.758 64 12.485 57.081 3.448 47.174.78zM22.197 44.667L16.464 50.4l-2.861-2.862 5.731-5.732 2.863 2.86zM8.668 60.447A3.589 3.589 0 016.112 61.5a3.59 3.59 0 01-2.557-1.053 3.617 3.617 0 010-5.11l7.155-7.156 4.869 4.87h.001l.002.002.238.238-7.152 7.156zm18.044-16.664a1.31 1.31 0 01-.933.383h-.001c-.353 0-.682-.136-.93-.383l-4.63-4.627v-.001a1.32 1.32 0 010-1.864l2.02-2.02a22.944 22.944 0 006.493 6.493l-2.019 2.019z"/><path d="M36.667 17.167v1.293a1.25 1.25 0 102.5 0v-1.293c0-1.144.93-2.074 2.073-2.074 1.144 0 2.074.93 2.074 2.074v1.293c0 .387-.49.971-.962 1.536-.732.874-1.642 1.962-1.642 3.393v2.037a1.25 1.25 0 002.5 0V23.39c0-.523.514-1.137 1.059-1.788.724-.865 1.545-1.846 1.545-3.141v-1.293a4.579 4.579 0 00-4.574-4.574 4.579 4.579 0 00-4.573 4.574zm5.3 13.231c-.69 0-1.25.56-1.25 1.25v.008c0 .69.56 1.246 1.25 1.246a1.253 1.253 0 000-2.504z"/><path d="M24.086 22.758c0 9.462 7.695 17.16 17.154 17.16 9.46 0 17.155-7.698 17.155-17.16 0-9.46-7.696-17.156-17.155-17.156-9.459 0-17.154 7.696-17.154 17.156zm31.81 0c0 8.083-6.575 14.66-14.656 14.66-8.08 0-14.654-6.577-14.654-14.66 0-8.081 6.574-14.656 14.654-14.656 8.081 0 14.655 6.575 14.655 14.656zM41.233 2.5h.008c.69 0 1.246-.56 1.246-1.25S41.924 0 41.233 0a1.25 1.25 0 000 2.5z"/></g><defs><clipPath id="clip0"><path fill="#fff" d="M0 0h64v64H0z"/></clipPath></defs></svg>