<svg width="64" height="64" fill="none" xmlns="http://www.w3.org/2000/svg"><g clip-path="url(#clip0)" fill="#0094FF"><path d="M58.942 49.276a40.6 40.6 0 00-.917-3.462 1.25 1.25 0 00-2.383.757c.308.97.589 2.033.86 3.247.41 1.853.234 2.569.014 2.843-.207.258-.817.566-2.548.566H42.11c.52-2.208-.05-4.637-1.71-6.357-1.103-1.145-2.614-1.738-4.25-1.671A6.51 6.51 0 0032 46.951a6.499 6.499 0 00-4.148-1.752c-1.638-.066-3.15.527-4.251 1.67-1.66 1.721-2.23 4.15-1.71 6.357H10.032c-1.732 0-2.342-.307-2.549-.565-.22-.274-.396-.99.015-2.843 1.304-5.88 3.742-12.028 11.332-14.997l5.74 7.47a1.248 1.248 0 001.7.268l5.727-3.938 5.731 3.938a1.249 1.249 0 001.7-.269l5.743-7.473c1.893.74 3.54 1.706 4.965 2.917a1.247 1.247 0 001.762-.143 1.25 1.25 0 00-.143-1.762C48.974 33.465 45.36 31.872 41 31.088v-4.386c2.844-2.873 4.466-6.083 4.466-8.87v-4.347C45.467 6.049 39.42 0 31.987 0c-7.432 0-13.479 6.05-13.479 13.485v4.347c0 2.998 1.922 6.289 4.495 8.894v4.361C10.193 33.38 6.678 41.975 5.058 49.277c-.352 1.59-.616 3.588.476 4.949 1.068 1.33 2.965 1.5 4.499 1.5h13.02c.168.226.349.443.548.65l.031.03 7.502 7.243a1.247 1.247 0 001.736 0l7.498-7.242.031-.031c.2-.207.381-.424.549-.65h13.02c1.533 0 3.43-.17 4.498-1.5 1.093-1.361.829-3.36.476-4.95zM31.998 35.62l-6.495-4.152v-2.576c2.198 1.616 4.554 2.649 6.485 2.649 1.876 0 4.235-.988 6.513-2.669v2.592L32 35.621zm10.647-1.618l-4.477 5.826-3.908-2.686 5.762-3.683c.916.147 1.79.327 2.623.543zM31.988 2.5c5.252 0 9.653 3.708 10.728 8.645-2.518-1.098-4.798-.035-6.72.86-1.359.634-2.642 1.232-4.008 1.232s-2.649-.598-4.007-1.231c-1.922-.896-4.203-1.96-6.721-.86C22.334 6.209 26.736 2.5 31.988 2.5zm-10.98 15.332v-3.568c2.046-1.795 3.612-1.067 5.916.008 1.474.687 3.144 1.466 5.064 1.466s3.59-.78 5.064-1.466c2.305-1.075 3.872-1.803 5.915-.008v3.568c0 2.511-1.821 5.3-4.099 7.467v.001c-2.298 2.186-5.058 3.74-6.88 3.74-3.63 0-10.98-6.164-10.98-11.208zm2.966 15.627l5.763 3.683-3.905 2.686-4.474-5.823a27.856 27.856 0 012.616-.546zm14.64 21.166l-6.612 6.387-6.616-6.387c-1.59-1.665-1.586-4.361.015-6.02 1.38-1.432 3.623-1.016 4.912.19l.07.066c.5.47.934.875 1.619.875.686 0 1.118-.406 1.618-.877l.068-.063c1.29-1.206 3.534-1.621 4.912-.19 1.6 1.658 1.605 4.354.015 6.019z"/><path d="M54.563 42.315c.69 0 1.25-.56 1.25-1.25v-.003c0-.69-.56-1.248-1.25-1.248a1.252 1.252 0 000 2.501z"/></g><defs><clipPath id="clip0"><path fill="#fff" d="M0 0h64v64H0z"/></clipPath></defs></svg>