<svg width="64" height="64" fill="none" xmlns="http://www.w3.org/2000/svg"><path d="M43 46l2 6-8 3 2 3-6 4-1-1 7-17 4 2zm-22 0l-2 6 8 3-2 3 6 4 1-1-7-17-4 2zM32 1H15v1c0 1.032.121 2.037.349 3h-3.53l.194 1.165a15.327 15.327 0 003.536 7.533A17.063 17.063 0 0015 18v9h1.141A3.977 3.977 0 0116 26a4 4 0 014-4v-5.914A14.319 14.319 0 0027.166 18H40a4 4 0 014 4 4 4 0 014 4c0 .347-.058.679-.141 1H49v-9c0-9.374-7.626-17-17-17z" fill="#0094FF"/><path d="M49.123 47.288l-10.259-4.197A2.99 2.99 0 0137 40.314v-.718A18.51 18.51 0 0043.759 31H44c2.757 0 5-2.243 5-5 0-2.446-1.768-4.479-4.092-4.908C44.479 18.768 42.446 17 40 17H27.166c-2.34 0-4.645-.616-6.666-1.781l-1.5-.865v6.747A5.009 5.009 0 0015 26c0 2.757 2.243 5 5 5h.241A18.505 18.505 0 0027 39.596v.718a2.988 2.988 0 01-1.864 2.776l-10.259 4.197A15.842 15.842 0 005 62v1h54v-1a15.84 15.84 0 00-9.877-14.712zM47 26a2.995 2.995 0 01-2.586 2.958c.379-1.482.586-3.025.586-4.607v-1.167c1.161.414 2 1.514 2 2.816zm-30 0c0-1.302.839-2.402 2-2.816v1.167c0 1.582.207 3.125.586 4.607A2.995 2.995 0 0117 26zm4-1.649v-6.642A15.38 15.38 0 0027.166 19H40c1.654 0 3 1.346 3 3v2.351a16.526 16.526 0 01-11 15.591 16.525 16.525 0 01-11-15.591zm7.964 16.445c.864.45 1.772.837 2.719 1.152l.317.106.316-.105a18.69 18.69 0 002.719-1.152 4.968 4.968 0 002.4 3.812c-.153.4-.343.867-.564 1.392h-9.743a45.237 45.237 0 01-.565-1.392 4.97 4.97 0 002.401-3.813zM36.005 48c-1.299 2.932-2.985 6.523-4.005 8.675-1.02-2.153-2.706-5.745-4.004-8.675h8.009zm-20.371 1.14l9.099-3.723c1.534 3.94 6.15 13.567 6.365 14.016L31.851 61H17v-6h-2v6H7.035a13.84 13.84 0 018.599-11.86zM49 61v-6h-2v6H32.148l.753-1.567c.216-.448 4.829-10.06 6.366-14.016l9.099 3.723A13.84 13.84 0 0156.965 61H49z" fill="#345A9C"/><path d="M38 24a1 1 0 100-2 1 1 0 000 2zm-12 0a1 1 0 100-2 1 1 0 000 2zm10 8h-2c0 1.103-.897 2-2 2s-2-.897-2-2h-2c0 2.206 1.794 4 4 4s4-1.794 4-4z" fill="#345A9C"/></svg>