<svg width="64" height="64" fill="none" xmlns="http://www.w3.org/2000/svg"><path d="M49 29c-7.72 0-14-6.28-14-14S41.28 1 49 1s14 6.28 14 14-6.28 14-14 14zm0-23c-4.963 0-9 4.037-9 9s4.037 9 9 9 9-4.037 9-9-4.037-9-9-9zM21 45H9V35h12v10zm8 10H19v-8h10v8zM9 48h8v4H9v-4zm14-8h6v4h-6v-4zm20 10V38h-8v17h20v-5H43z" fill="#0094FF"/><path d="M49 25c5.514 0 10-4.486 10-10S54.514 5 49 5 39 9.486 39 15s4.486 10 10 10zm0-18c4.411 0 8 3.589 8 8s-3.589 8-8 8-8-3.589-8-8 3.589-8 8-8z" fill="#345A9C"/><path d="M60 35h-1v-4h-6v-2.59c-.648.193-1.317.332-2 .43V43c0 1.103-.897 2-2 2s-2-.897-2-2V28.84a13.801 13.801 0 01-2-.43V31h-6.528a8.18 8.18 0 00-5.851 2.453A2.99 2.99 0 0033 32V4c0-1.654-1.346-3-3-3H10C8.346 1 7 2.346 7 4v27H5v4H4c-1.654 0-3 1.346-3 3v22c0 1.654 1.346 3 3 3h56c1.654 0 3-1.346 3-3V38c0-1.654-1.346-3-3-3zM4 61a1 1 0 01-1-1V38a1 1 0 011-1h1v22h20.528c1.777 0 3.419.739 4.579 2H4zm27-1.907A8.181 8.181 0 0025.528 57H7V33h18.528A6.195 6.195 0 0131 36.268v22.825zM31 32a.987.987 0 01-.38.767A8.194 8.194 0 0025.528 31H9v-4h22v5zm0-7H9v-6h22v6zm0-8H9v-6h22v6zm0-8H9V4a1 1 0 011-1h20a1 1 0 011 1v5zm2 27.268A6.195 6.195 0 0138.472 33H45v10c0 2.206 1.794 4 4 4s4-1.794 4-4V33h4v24H38.472c-2.07 0-3.993.771-5.472 2.093V36.268zM61 60a1 1 0 01-1 1H33.893a6.196 6.196 0 014.579-2H59V37h1a1 1 0 011 1v22z" fill="#345A9C"/><path d="M19 5h2v2h-2V5zm-4 0h2v2h-2V5zm-4 0h2v2h-2V5zm0 16h2v2h-2v-2zm4 0h2v2h-2v-2zm4 0h2v2h-2v-2zm8-8h2v2h-2v-2zm-8 0h2v2h-2v-2zm4 0h2v2h-2v-2zM9 47h8v2H9v-2zm0 4h8v2H9v-2zm14-8h6v2h-6v-2zm0-4h6v2h-6v-2zm12-2h8v2h-8v-2zm0 4h8v2h-8v-2zm0 4h8v2h-8v-2zm0 4h20v2H35v-2zm0 4h2v2h-2v-2zm4 0h16v2H39v-2z" fill="#345A9C"/></svg>