<svg width="64" height="64" fill="none" xmlns="http://www.w3.org/2000/svg"><path d="M36.677 13h-9.354l-2.978-7.444 5.05 1.263L32 .31l2.604 6.51 5.05-1.263L36.677 13zM35 27l-3 3-3-3h-6v8.936c0 2.889 1.125 5.604 3.167 7.646a10.784 10.784 0 002.811 2.025L32 47.118l3.023-1.512a10.78 10.78 0 002.81-2.025A10.741 10.741 0 0041 35.936V27h-6z" fill="#0094FF"/><path d="M63.104 63.104L61.96 50.519l-10.27-9.217c.193-.396.31-.833.31-1.302 0-.395-.08-.77-.22-1.116A2.995 2.995 0 0054 36c0-.395-.08-.77-.22-1.116A2.995 2.995 0 0056 32c0-1.654-1.346-3-3-3h-8v-2.16l3.04-3.387L51 26.414 55.414 22l-4-4 6.49-6.488.64-2.558c.151.017.3.046.456.046 2.206 0 4-1.794 4-4s-1.794-4-4-4-4 1.794-4 4c0 .157.03.306.046.458l-2.557.639L46 12.586l-4-4L37.586 13l2.961 2.961-6.942 6.23L32 20.586l-1.605 1.605-6.942-6.23L26.414 13 22 8.586l-4 4-6.489-6.489-2.557-.639C8.971 5.306 9 5.157 9 5c0-2.206-1.794-4-4-4S1 2.794 1 5s1.794 4 4 4c.157 0 .305-.029.458-.046l.64 2.558L12.586 18l-4 4L13 26.414l2.961-2.961 3.04 3.387V29h-8c-1.655 0-3 1.346-3 3 0 1.383.944 2.539 2.22 2.884-.14.346-.22.721-.22 1.116 0 1.383.944 2.539 2.22 2.884-.14.346-.22.721-.22 1.116 0 .469.116.906.31 1.302L2.04 50.519.895 63.104l12.586-1.145 12.485-13.912c.383.237.775.462 1.18.665L32 51.116l4.856-2.405a14.74 14.74 0 001.177-.663L50.518 61.96l12.586 1.144zm-2.35-3.764L44.414 43H49c.454 0 .88-.109 1.265-.29l9.774 8.771.715 7.859zM53 31a1.001 1.001 0 010 2h-4v2h2a1.001 1.001 0 010 2h-4v2h2a1.001 1.001 0 010 2h-4.949c.627-1.56.95-3.218.95-5v-5h8zm-8-7.154V23h-2.586L45 20.414l1.623 1.623L45 23.846zM59 3c1.103 0 2 .897 2 2s-.897 2-2 2-2-.897-2-2 .897-2 2-2zm-2.338 5.231l-.404 1.613-2.102-2.102 1.613-.404c.25.343.55.644.893.893zm-4.162.683l2.586 2.586L50 16.586 47.414 14 52.5 8.914zm-10.5 2.5L52.586 22 51 23.586 40.414 13 42 11.414zM43.586 19l-4 4h-3.889l6.266-5.623L43.586 19zm-9 7L32 28.586 29.414 26 32 23.414 34.586 26zm-6.283-3h-3.889l-4-4 1.623-1.623L28.303 23zM3 5c0-1.103.897-2 2-2s2 .897 2 2-.897 2-2 2-2-.897-2-2zm5.231 2.338l1.613.404-2.102 2.102-.404-1.613c.343-.249.644-.55.893-.893zm.683 4.162L11.5 8.914 16.586 14 14 16.586 8.914 11.5zm2.5 10.5L22 11.414 23.586 13 13 23.586 11.414 22zm5.963.037L19 20.414 21.586 23H19v.846l-1.623-1.809zM13 35h2v-2h-4a1.001 1.001 0 010-2h8v5c0 1.782.322 3.44.95 5H15a1.001 1.001 0 010-2h2v-2h-4a1.001 1.001 0 010-2zm.735 7.71c.386.181.811.29 1.265.29h4.586L3.246 59.34l.715-7.859 9.774-8.771zm-1.217 17.33l-7.858.714 16.88-16.879a16.641 16.641 0 001.753 2.061c.331.332.682.641 1.041.938L12.518 60.04zm23.447-13.12L32 48.884l-3.962-1.962a12.769 12.769 0 01-3.33-2.4C22.177 41.993 21 39.285 21 36V25h6.586l-1 1L31 30.414V35h-6v2h6v8h2v-8h6v-2h-6v-4.586L37.414 26l-1-1H43v11c0 3.285-1.178 5.993-3.708 8.521a12.693 12.693 0 01-3.327 2.399zm4.742-.984a16.728 16.728 0 001.754-2.061l16.88 16.879-7.859-.714-11.816-13.166c.36-.298.71-.607 1.041-.938z" fill="#345A9C"/></svg>