<svg width="14" height="24" fill="none" xmlns="http://www.w3.org/2000/svg"><path d="M1.326 12.782h2.63v10.83c0 .215.174.388.387.388h4.461a.387.387 0 00.387-.387v-10.78h3.024a.387.387 0 00.385-.342l.46-3.988a.387.387 0 00-.385-.431H9.19v-2.5c0-.753.406-1.135 1.206-1.135h2.278a.387.387 0 00.387-.387V.39a.387.387 0 00-.387-.387h-3.14A3.078 3.078 0 009.393 0C8.847 0 6.954.107 5.46 1.483c-1.657 1.524-1.427 3.35-1.372 3.666v2.923H1.326a.387.387 0 00-.388.387v3.936c0 .214.174.387.388.387z" fill="#0094FF"/></svg>