<svg width="64" height="64" fill="none" xmlns="http://www.w3.org/2000/svg"><path d="M34.99 25.177c.691 0 1.25-.56 1.25-1.25v-4.964a1.25 1.25 0 00-2.5 0v4.964c0 .69.56 1.25 1.25 1.25zm0-9.982c.691 0 1.25-.56 1.25-1.25v-.007c0-.69-.559-1.246-1.25-1.246a1.253 1.253 0 000 2.503z" fill="#fff"/><path d="M56.875 0H8.67a2.798 2.798 0 00-2.795 2.795V58.04a5.966 5.966 0 005.96 5.96h45.04c.69 0 1.25-.56 1.25-1.25V1.25c0-.69-.56-1.25-1.25-1.25zm-48.5 2.795c0-.16.135-.295.295-.295h5.263v49.578h-2.099a5.925 5.925 0 00-3.459 1.11V2.795zm47.25 49.283H36.483a1.25 1.25 0 100 2.5h19.142V61.5h-43.79a3.463 3.463 0 01-3.46-3.459 3.465 3.465 0 013.46-3.462h13.422a1.25 1.25 0 000-2.5h-8.824V2.5h39.192v49.578z" fill="#fff"/><path d="M34.99 30.832c6.561 0 11.898-5.339 11.898-11.901 0-6.56-5.337-11.898-11.898-11.898-6.56 0-11.898 5.337-11.898 11.898 0 6.562 5.338 11.9 11.898 11.9zm0-21.299c5.182 0 9.398 4.216 9.398 9.398 0 5.184-4.215 9.4-9.398 9.4-5.182 0-9.398-4.216-9.398-9.4 0-5.182 4.216-9.398 9.398-9.398zM24.743 46.486h19.361a2.09 2.09 0 002.087-2.086v-5.283a2.087 2.087 0 00-2.087-2.083H24.743a2.085 2.085 0 00-2.083 2.083V44.4c0 1.15.934 2.086 2.083 2.086zm.417-6.952h18.53v4.452H25.16v-4.452zm5.71 12.544a1.25 1.25 0 000 2.5h.007c.69 0 1.246-.56 1.246-1.25s-.563-1.25-1.253-1.25z" fill="#fff"/></svg>