<svg width="92" height="60" fill="none" xmlns="http://www.w3.org/2000/svg"><g clip-path="url(#clip0)"><path d="M19.274 25.249v5.84c-1.303-2.493-3.28-3.75-5.93-3.75-2.651 0-3.977 1.46-3.977 4.38 0 1.46.36 2.515 1.078 3.167.72.651 1.865.966 3.46.966 1.505 0 2.763-.36 3.774-1.078 1.01-.72 1.482-1.595 1.437-2.629 0-.045 0-.09-.022-.18.427.36.651.877.651 1.528 0 1.505-.629 2.718-1.887 3.662-1.258.943-2.897 1.392-4.964 1.392-2.359 0-4.38-.651-6.088-1.931-1.707-1.28-2.56-2.808-2.56-4.583 0-1.797.853-3.414 2.56-4.852 1.708-1.438 3.662-2.134 5.841-2.134 1.887 0 3.55.517 4.987 1.572l1.64-1.37zm9.973-.202c2.134 0 3.999.696 5.594 2.089 1.572 1.393 2.359 3.055 2.359 4.942 0 1.752-.787 3.28-2.382 4.56-1.594 1.28-3.481 1.91-5.66 1.91-2.157 0-4.044-.652-5.661-1.932-1.617-1.303-2.449-2.786-2.449-4.493 0-1.932.809-3.594 2.426-4.987 1.618-1.393 3.55-2.09 5.773-2.09zm-.112 2.156c-.876 0-1.595.427-2.156 1.258-.562.854-.831 1.932-.831 3.258 0 1.325.27 2.38.808 3.19.54.808 1.28 1.19 2.18 1.19.898 0 1.639-.404 2.178-1.19.54-.787.809-1.865.809-3.19 0-1.326-.27-2.404-.831-3.258-.562-.83-1.28-1.258-2.157-1.258zm20.846-1.729l-2.022 2.268 3.55 7.279 3.212 2.92H44.028l2.943-2.561-.382-.854h-4.874l-.382.854 2.56 2.56h-7.907l2.494-2.92 3.482-7.278-1.977-2.268h9.996zm-5.953 3.616l-1.505 3.37h3.1l-1.595-3.37z" fill="#57689F"/><path d="M54.676 25.474h11.142c1.28 0 2.269.134 2.988.404.719.27 1.438.741 2.134 1.46 1.348 1.37 2.022 2.898 2.022 4.583 0 1.774-.697 3.234-2.067 4.358-1.37 1.123-3.167 1.684-5.369 1.684h-10.85l3.1-2.875v-6.672l-3.1-2.942zm7.48 9.996h2.09c1.46 0 2.448-.225 2.92-.697.472-.471.719-1.415.719-2.852 0-2.83-1.19-4.246-3.594-4.246h-2.134v7.795zm11.929-9.996h12.354c1.348 0 2.427.292 3.28.898.831.607 1.258 1.393 1.258 2.359 0 1.415-1.236 2.336-3.729 2.763 2.898.539 4.358 1.685 4.358 3.414 0 2.022-1.73 3.033-5.167 3.033H74.107l3.1-2.853v-6.694l-3.122-2.92zm7.48 4.897h3.55c.965 0 1.437-.427 1.437-1.28 0-.944-.495-1.416-1.46-1.416h-3.505v2.696h-.022zm0 5.346h3.504c1.168 0 1.752-.45 1.752-1.37 0-1.011-.427-1.505-1.303-1.505h-3.93v2.875h-.023z" fill="#68696B"/><path d="M39.064 51.554c4.785 5.211 8.244 6.581 14.803 8.423-1.258-5.84-2.336-11.321-7.412-14.96-.135.18-.72.876-.854 1.033-1.82 2.134-3.999 4.044-6.537 5.504zm-26.013-6.2c-.045-.023-.09-.023-.135-.045-4.74 3.886-6.424 9.075-8.041 14.669 6.694-1.977 11.613-4.291 15.634-8.245-2.875-1.752-5.301-3.908-7.458-6.38zM16.78 9.48c1.55-.832 2.83-1.505 4.38-2.337a692.57 692.57 0 00-3.773-3.998l-4.673 3.819C10.513 5.167 8.29 3.347 8.177 0 5.66 1.617 3.145 3.257 0 5.279c4.65.54 5.998 3.032 7.772 5.818-2.021.876-3.796 1.662-5.683 2.471 1.236 1.303 2.56 2.673 3.931 4.11 1.415-.988 3.684-2.942 3.684-2.942s1.46 1.078 2.224 1.617c3.122-.763 5.571-1.887 7.93-2.942-1.101-1.415-2.044-2.606-3.078-3.931zm25.182 0c-1.55-.832-2.83-1.505-4.38-2.337 1.302-1.392 2.515-2.65 3.796-3.998l4.672 3.819C48.252 5.167 50.476 3.347 50.588 0c2.516 1.617 5.032 3.257 8.154 5.279-4.627.54-5.975 3.032-7.75 5.818 2.022.876 3.797 1.662 5.684 2.471-1.236 1.303-2.561 2.673-3.932 4.11-1.415-.988-3.684-2.942-3.684-2.942s-1.46 1.078-2.224 1.617c-3.122-.763-5.57-1.887-7.93-2.942 1.102-1.415 2.023-2.606 3.056-3.931z" fill="#57689F"/><path d="M48.274 19.094c-7.503-1.28-13.59-4.268-19.094-8.267-5.077 4.448-11.299 6.717-18.263 8.245-.449.09-.494 1.797-.314 3.976h37.649c.045-1.28.067-2.606.022-3.954zM29.292 52.88c6.762-3.011 10.311-4.74 13.523-8.492a19.228 19.228 0 002.561-3.954H13.568c3.1 5.796 9.075 9.188 15.724 12.445zm27.248-9.009c.338 0 .652.113.9.337.269.225.404.472.404.764 0 .292-.135.54-.405.764-.27.224-.561.337-.898.337-.337 0-.652-.113-.899-.337-.247-.225-.404-.472-.404-.764 0-.292.135-.54.404-.764.247-.224.562-.337.899-.337zm9.548-.674c.292.315.427.652.427.989 0 .629-.315 1.123-.921 1.505-.607.382-1.416.561-2.426.561-1.079 0-2.022-.292-2.809-.853-.786-.562-1.19-1.236-1.19-2 0-.876.404-1.617 1.235-2.223.832-.607 1.82-.921 2.966-.921.808 0 1.527.157 2.134.494.606.337.898.719.898 1.168 0 .629-.382.92-1.145.92a3.51 3.51 0 01-.742-.111 2.32 2.32 0 00.068-.495c0-.27-.113-.471-.36-.651-.247-.18-.539-.247-.876-.247-1.01 0-1.527.651-1.527 1.932 0 1.19.629 1.774 1.887 1.774 1.617 0 2.38-.606 2.38-1.842zm5.593-2.942c1.056 0 2 .314 2.808.943.809.63 1.213 1.348 1.213 2.18 0 .785-.404 1.46-1.213 2.02-.809.562-1.775.832-2.898.832-1.145 0-2.111-.292-2.92-.876-.809-.584-1.213-1.303-1.213-2.112 0-.83.404-1.527 1.236-2.111.83-.584 1.819-.876 2.987-.876zm-.135 1.123c-.943 0-1.415.629-1.415 1.91 0 1.212.472 1.819 1.438 1.819.943 0 1.393-.607 1.393-1.797.022-1.28-.45-1.932-1.416-1.932zm8.828-.944v1.483c.585-1.078 1.37-1.617 2.404-1.617 1.168 0 1.932.561 2.269 1.662.45-1.123 1.235-1.685 2.359-1.685.786 0 1.392.202 1.797.607.426.404.629.988.629 1.752v1.887l1.887 1.415h-5.392l1.034-1.168v-2c0-.673-.315-1.01-.944-1.01-.36 0-.674.157-.92.449-.248.292-.36.674-.36 1.123v1.438l1.033 1.168h-4.56l1.033-1.168v-1.842c0-.764-.292-1.168-.876-1.168-.404 0-.719.135-.966.427-.247.291-.36.65-.36 1.123v1.437l1.034 1.168h-5.189l1.685-1.415v-2.56l-1.685-1.416 4.088-.09z" fill="#68696B"/></g><defs><clipPath id="clip0"><path fill="#fff" d="M0 0h91.741v60H0z"/></clipPath></defs></svg>