<svg width="64" height="64" fill="none" xmlns="http://www.w3.org/2000/svg"><g clip-path="url(#clip0)" fill="#0094FF"><path d="M32 39.868c5.108 0 10.217-1.945 14.105-5.833a19.775 19.775 0 005.633-11.204 19.828 19.828 0 00-2.04-12.107 1.25 1.25 0 00-2.218 1.155c3.536 6.782 2.273 14.975-3.143 20.388l-.047.046a12.62 12.62 0 00-5.594-8.082 8.6 8.6 0 001.946-5.456c0-4.763-3.876-8.638-8.642-8.638-4.767 0-8.645 3.875-8.645 8.638 0 2.068.73 3.967 1.947 5.456a12.622 12.622 0 00-5.591 8.082l-.047-.046a17.32 17.32 0 01-5.112-12.332 17.32 17.32 0 015.111-12.331c5.42-5.417 13.62-6.677 20.406-3.135a1.25 1.25 0 101.157-2.217A20.123 20.123 0 0029.109.206a19.788 19.788 0 00-11.213 5.63 19.805 19.805 0 00-5.844 14.1 19.804 19.804 0 005.844 14.099c3.889 3.889 8.996 5.833 14.104 5.833zm0-27.231a6.147 6.147 0 016.142 6.138A6.149 6.149 0 0132 24.917a6.15 6.15 0 01-6.145-6.142c0-3.385 2.757-6.138 6.145-6.138zm-4.755 13.35c1.366.902 3 1.43 4.755 1.43a8.59 8.59 0 004.753-1.43c3.057 1.654 5.06 4.773 5.276 8.221-5.993 4.213-14.064 4.213-20.057 0a10.095 10.095 0 015.273-8.22z"/><path d="M45.225 7.977a1.25 1.25 0 001.117-1.81l-.003-.006a1.247 1.247 0 00-1.675-.556 1.253 1.253 0 00.561 2.372zM42.403 49.54l-6.32-1.072-2.975-5.678a1.25 1.25 0 00-2.215 0l-2.974 5.678-6.324 1.072a1.25 1.25 0 00-.684 2.107l4.484 4.582-.931 6.34a1.25 1.25 0 001.791 1.301l5.746-2.844 5.745 2.844a1.25 1.25 0 001.791-1.302l-.93-6.34 4.48-4.581a1.25 1.25 0 00-.684-2.107zm-6.017 5.383c-.273.28-.4.67-.343 1.056l.674 4.592-4.162-2.06a1.25 1.25 0 00-1.109 0l-4.162 2.06.674-4.592a1.25 1.25 0 00-.343-1.056l-3.247-3.317 4.58-.777a1.25 1.25 0 00.898-.652l2.155-4.113 2.154 4.112c.181.346.513.588.898.653l4.577.777-3.244 3.317zM19.227 40.281l-4.392-.746-2.063-3.941a1.25 1.25 0 00-2.215 0l-2.067 3.94-4.389.747a1.25 1.25 0 00-.684 2.107L6.53 45.57l-.648 4.4a1.25 1.25 0 001.792 1.303l3.99-1.976 3.99 1.976a1.25 1.25 0 001.792-1.302L16.8 45.57l3.112-3.182a1.25 1.25 0 00-.684-2.107zm-4.649 3.984c-.273.279-.4.67-.343 1.056l.39 2.653-2.406-1.192a1.25 1.25 0 00-1.11 0l-2.406 1.192.39-2.653a1.25 1.25 0 00-.343-1.056l-1.877-1.92 2.647-.45a1.25 1.25 0 00.897-.651l1.246-2.377 1.244 2.376c.181.346.513.587.898.653l2.65.45-1.877 1.919zm46.3-3.138a1.25 1.25 0 00-.979-.846l-4.389-.746-2.066-3.942a1.25 1.25 0 00-2.215 0l-2.066 3.942-4.39.746a1.25 1.25 0 00-.683 2.107l3.112 3.182-.647 4.4a1.25 1.25 0 001.791 1.303l3.99-1.976 3.991 1.976a1.25 1.25 0 001.791-1.302l-.647-4.401 3.112-3.182a1.25 1.25 0 00.295-1.26zm-5.628 3.138c-.273.279-.4.67-.343 1.056l.39 2.653-2.406-1.192a1.25 1.25 0 00-1.11 0l-2.406 1.192.39-2.653a1.25 1.25 0 00-.343-1.056l-1.876-1.92 2.646-.45a1.25 1.25 0 00.898-.651l1.246-2.378 1.248 2.378c.18.345.512.586.897.652l2.646.45-1.877 1.919z"/></g><defs><clipPath id="clip0"><path fill="#fff" d="M0 0h64v64H0z"/></clipPath></defs></svg>