<svg width="28" height="32" fill="none" xmlns="http://www.w3.org/2000/svg"><path d="M12.657 17.87L8.61 14.015l-1.724 1.812 5.912 5.628 9.01-10.031-1.86-1.671-7.29 8.115z" fill="#0094FF"/><path d="M24.28 4.074c-3.032-.543-5.823-2.198-7.217-3.137a5.47 5.47 0 00-6.128 0c-1.394.939-4.186 2.594-7.217 3.137A3.753 3.753 0 00.619 7.768v7.544c0 2.493.697 4.922 2.073 7.222 1.075 1.798 2.566 3.518 4.43 5.11 3.134 2.676 6.238 4.072 6.368 4.13L14 32l.508-.226c.13-.058 3.234-1.454 6.368-4.13 1.864-1.592 3.355-3.312 4.43-5.11 1.376-2.3 2.073-4.73 2.073-7.222V7.768a3.753 3.753 0 00-3.098-3.694zm.598 11.238c0 3.716-1.878 7.211-5.58 10.39a27.742 27.742 0 01-5.3 3.54C11.787 28.117 3.12 23.208 3.12 15.312V7.769c0-.606.437-1.124 1.039-1.232 3.482-.624 6.615-2.476 8.172-3.524a2.976 2.976 0 013.335 0c1.558 1.048 4.69 2.9 8.173 3.524a1.254 1.254 0 011.039 1.232v7.545z" fill="#0094FF"/></svg>